<svg viewBox="0 0 100 100" xmlns="http://www.w3.org/2000/svg">
  <!-- Hexágono externo -->
  <path d="M50 5 L85 27.5 L85 72.5 L50 95 L15 72.5 L15 27.5 Z" 
        stroke="#22C55E" stroke-width="6" fill="none"/>
  
  <!-- Hexágono interno menor (centro da bola) -->
  <path d="M50 30 L65 40 L65 60 L50 70 L35 60 L35 40 Z" 
        fill="#22C55E" stroke="#22C55E" stroke-width="2"/>
  
  <!-- Linhas de conexão formando padrão de rede -->
  <line x1="50" y1="30" x2="50" y2="15" stroke="#22C55E" stroke-width="3"/>
  <line x1="65" y1="40" x2="75" y2="32" stroke="#22C55E" stroke-width="3"/>
  <line x1="65" y1="60" x2="75" y2="68" stroke="#22C55E" stroke-width="3"/>
  <line x1="50" y1="70" x2="50" y2="85" stroke="#22C55E" stroke-width="3"/>
  <line x1="35" y1="60" x2="25" y2="68" stroke="#22C55E" stroke-width="3"/>
  <line x1="35" y1="40" x2="25" y2="32" stroke="#22C55E" stroke-width="3"/>
  
  <!-- Pontos nas extremidades -->
  <circle cx="50" cy="15" r="3" fill="#22C55E"/>
  <circle cx="75" cy="32" r="3" fill="#22C55E"/>
  <circle cx="75" cy="68" r="3" fill="#22C55E"/>
  <circle cx="50" cy="85" r="3" fill="#22C55E"/>
  <circle cx="25" cy="68" r="3" fill="#22C55E"/>
  <circle cx="25" cy="32" r="3" fill="#22C55E"/>
</svg>
