<svg version="1.1" id="Layer_1" xmlns="http://www.w3.org/2000/svg" xmlns:xlink="http://www.w3.org/1999/xlink" x="0px" y="0px"
	 width="100%" viewBox="0 0 328 329" enable-background="new 0 0 328 329" xml:space="preserve">
<path fill="#F6F7F6" opacity="1.000000" stroke="none" 
	d="
M176.000000,330.000000 
	C117.333351,330.000000 59.166710,330.000000 1.000047,330.000000 
	C1.000031,220.333389 1.000031,110.666786 1.000016,1.000135 
	C110.333229,1.000090 219.666458,1.000090 328.999756,1.000045 
	C328.999847,110.666527 328.999847,220.333054 328.999939,329.999786 
	C278.166656,330.000000 227.333328,330.000000 176.000000,330.000000 
M186.870850,110.442451 
	C185.886520,109.987686 184.902176,109.532921 184.008179,109.018372 
	C184.008179,109.018372 183.929260,109.093956 183.884476,108.321342 
	C182.397827,107.696564 180.911179,107.071785 178.762314,106.362663 
	C177.528427,105.853661 176.294540,105.344666 174.932449,104.145821 
	C171.559174,101.707428 168.192444,99.270836 168.199677,94.456696 
	C168.199844,94.350578 167.309875,94.243126 166.985199,94.033257 
	C166.985199,94.033257 166.857773,94.163277 166.887939,93.415939 
	C164.554260,92.296120 162.220566,91.176292 159.340836,89.950775 
	C158.897522,89.632553 158.454224,89.314331 157.943100,88.299263 
	C156.828354,86.327072 155.930847,83.856743 152.269836,86.102913 
	C150.588715,86.780319 148.907593,87.457718 146.425537,88.037300 
	C144.971771,89.070992 143.518005,90.104691 141.763367,91.534187 
	C141.478821,91.923431 141.194275,92.312675 140.285812,92.843506 
	C139.869751,92.927910 139.453674,93.012321 138.719315,92.606583 
	C138.163757,93.095871 137.608200,93.585159 137.005798,94.002525 
	C137.005798,94.002525 137.074173,94.054428 136.416321,94.078110 
	C136.263458,95.055527 136.110596,96.032944 136.057236,97.662392 
	C136.022034,98.099098 135.986832,98.535797 135.272156,99.098373 
	C132.621552,100.666130 129.919235,102.154396 127.340057,103.831955 
	C125.832390,104.812576 124.521317,106.095459 122.761208,107.673775 
	C122.550545,107.977669 122.339882,108.281570 121.797157,108.417908 
	C121.797157,108.417908 121.468788,108.243240 120.839813,108.246704 
	C120.560257,108.538246 120.280701,108.829788 119.806854,109.317230 
	C119.806854,109.317230 119.535172,109.269188 118.868996,109.290497 
	C118.622261,109.631699 118.375519,109.972900 117.847900,110.712227 
	C117.847900,110.712227 117.404770,110.914795 116.738495,110.900719 
	C115.863678,111.651588 114.988853,112.402458 114.021004,113.070526 
	C114.021004,113.070526 114.140717,113.104927 113.611565,113.192154 
	C113.411285,113.474251 113.211006,113.756355 112.948517,114.431419 
	C112.948517,114.431419 112.894753,114.825630 112.291100,114.988953 
	C111.745743,115.294586 111.200394,115.600220 110.106171,115.589302 
	C107.898232,115.505165 105.690285,115.421021 102.890556,115.306786 
	C102.103485,115.312607 101.316414,115.318428 99.878235,115.328392 
	C99.632889,115.658638 99.387543,115.988884 98.693680,116.764664 
	C97.205391,117.554367 95.717102,118.344078 93.456131,119.048103 
	C91.995811,120.084198 90.535484,121.120285 88.689705,122.610092 
	C87.836441,123.412712 86.983170,124.215324 85.636948,125.266624 
	C85.769142,125.846886 85.901329,126.427155 86.141335,127.922569 
	C86.100174,131.611465 86.059013,135.300354 85.554054,139.280594 
	C85.722374,139.854050 85.890686,140.427505 86.199623,141.335236 
	C86.199623,141.335236 86.194237,141.697815 86.074150,142.461441 
	C87.754143,144.325134 89.434143,146.188843 91.085098,148.704437 
	C90.989410,149.128159 90.893730,149.551880 90.205780,150.389526 
	C87.131981,157.212814 86.683418,164.082581 90.004944,171.654846 
	C90.033005,172.092606 90.061058,172.530350 89.535126,173.415421 
	C89.010605,176.253891 88.486076,179.092361 87.555580,182.306351 
	C87.089638,182.873352 86.623695,183.440353 85.606346,184.326691 
	C85.741302,185.222885 85.876266,186.119080 86.113342,187.840012 
	C86.078377,189.222580 86.043411,190.605164 85.282921,192.146255 
	C83.661537,194.335205 82.679085,196.443375 86.139847,198.681580 
	C86.433571,199.772034 86.727295,200.862503 87.060455,202.673874 
	C89.290977,203.857574 91.521492,205.041260 94.029984,206.816895 
	C94.953743,207.288055 95.877510,207.759201 97.053856,208.866211 
	C98.841278,209.809052 100.567574,211.371460 102.429893,211.555206 
	C105.523888,211.860474 108.705246,211.280350 112.338425,211.137955 
	C112.338425,211.137955 112.829323,211.182175 112.885994,211.609161 
	C112.885994,211.609161 112.982697,212.028870 113.217430,212.505554 
	C113.531349,212.647751 113.845276,212.789948 114.573746,213.048706 
	C114.839233,213.178329 115.051445,213.367661 115.167793,214.346130 
	C116.061218,214.951630 116.954636,215.557129 118.064926,216.809937 
	C120.518433,218.360016 122.212288,221.807419 126.716072,220.081955 
	C128.455048,220.805679 130.194016,221.529404 131.983078,222.980072 
	C133.604141,226.037338 135.225189,229.094589 137.069412,232.767014 
	C138.742294,233.425217 140.415176,234.083435 142.647888,234.893188 
	C143.116989,235.215561 143.586090,235.537918 144.099243,236.556366 
	C146.247498,238.005447 147.094360,242.149643 151.665039,239.864365 
	C152.089890,239.839081 152.514740,239.813797 153.320419,240.361801 
	C156.542313,241.478424 157.391464,239.384949 158.361252,236.502533 
	C158.887421,236.276825 159.413605,236.051117 160.307373,236.365402 
	C163.093903,234.917145 168.309326,233.361343 168.250763,232.039062 
	C167.982834,225.987717 171.583466,223.592468 175.869507,221.265457 
	C175.949829,221.221848 175.907257,220.951859 176.203506,220.655792 
	C176.203506,220.655792 176.511093,220.700180 177.132584,220.723938 
	C177.420166,220.447357 177.707733,220.170761 178.554321,219.532089 
	C180.338943,218.608521 182.123550,217.684952 184.259354,217.303284 
	C185.150070,216.487518 186.040787,215.671753 187.199326,214.460052 
	C187.433289,214.227356 187.712860,214.082855 188.778793,214.033264 
	C190.280197,212.767075 191.781586,211.500885 194.093292,210.103546 
	C197.267487,210.727905 200.441696,211.352249 204.715363,212.192871 
	C205.835739,211.047440 207.884399,208.953003 210.285263,206.450150 
	C210.784363,206.260452 211.283463,206.070755 212.532745,205.979553 
	C213.334732,205.291672 214.136703,204.603775 215.009232,203.980606 
	C215.009232,203.980606 214.929199,203.930878 215.635529,204.004456 
	C216.439499,203.366943 217.243469,202.729431 218.358887,201.409805 
	C218.597015,199.941452 218.835144,198.473083 219.607468,196.385010 
	C219.389023,192.259293 219.170593,188.133560 218.697708,183.526718 
	C218.503433,183.220261 218.309174,182.913818 218.067520,182.005402 
	C217.355209,181.720932 216.642899,181.436478 215.371567,181.017563 
	C214.912140,180.689102 214.452728,180.360641 214.012894,179.339859 
	C213.658432,178.546234 213.303970,177.752609 212.961166,176.230026 
	C213.099487,175.515976 213.237793,174.801910 214.055786,173.803299 
	C214.689056,169.498108 215.802444,165.191635 215.791092,160.888138 
	C215.783203,157.892807 214.231262,154.901535 213.186752,151.202698 
	C213.120560,150.479309 213.054367,149.755936 213.519180,148.609329 
	C213.672623,147.732132 213.826050,146.854935 214.329544,145.511368 
	C214.869171,145.304871 215.408783,145.098373 216.381378,145.445618 
	C219.199020,146.374252 219.897934,144.948074 219.751266,141.989166 
	C219.857849,141.668732 219.964432,141.348297 220.843964,140.817688 
	C221.105225,135.860062 221.395630,130.903397 221.555832,125.942513 
	C221.565521,125.643028 220.538391,125.310074 219.605576,124.477875 
	C218.057617,123.348427 216.509674,122.218987 214.879990,120.370186 
	C213.380249,119.688965 211.880524,119.007751 209.785065,118.245522 
	C209.202774,118.138168 208.620468,118.030807 207.990631,117.527184 
	C207.990631,117.527184 207.938782,117.131439 207.898911,116.415024 
	C204.974396,113.765831 202.275574,113.027122 199.815247,117.730164 
	C199.644836,117.785774 199.474426,117.841393 198.777298,117.733284 
	C197.822449,117.893600 196.867599,118.053917 195.318771,118.041199 
	C194.920425,117.946030 194.522079,117.850853 193.835190,117.212952 
	C192.892822,116.469604 191.950439,115.726257 190.917831,114.454971 
	C190.572540,114.047981 190.227264,113.640991 189.861282,112.486748 
	C188.856796,112.038612 187.852310,111.590477 186.989304,111.041412 
	C186.989304,111.041412 186.872864,111.170441 186.870850,110.442451 
M267.115295,149.500000 
	C267.115387,138.335617 266.782166,127.158691 267.201599,116.010086 
	C267.703247,102.676407 261.876984,93.660408 250.445190,87.208176 
	C225.645203,73.210808 201.080368,58.797142 176.394714,44.596561 
	C172.010315,42.074406 167.506744,39.759422 162.173676,36.869450 
	C162.173676,43.372513 162.603622,48.717102 162.053894,53.958950 
	C161.493683,59.300900 163.711411,61.908394 168.187363,64.429054 
	C192.132080,77.913666 215.835693,91.825722 239.728546,105.403671 
	C244.472168,108.099403 246.305161,111.414253 246.255936,117.005127 
	C245.984528,147.830170 246.006744,178.659882 246.251999,209.485428 
	C246.295334,214.933182 244.269547,217.949692 239.706177,220.536346 
	C214.929138,234.580826 190.277512,248.846970 165.626602,263.112610 
	C164.296982,263.882050 162.446030,265.298767 162.396805,266.479187 
	C162.096176,273.686096 162.246536,280.911804 162.246536,288.919373 
	C164.708420,287.728424 166.223297,287.108490 167.628906,286.298920 
	C195.916672,270.006104 224.178543,253.668304 252.476730,237.393646 
	C262.509491,231.623642 267.254913,223.088226 267.156372,211.488007 
	C266.983704,191.160019 267.112732,170.829468 267.115295,149.500000 
M38.955151,181.500000 
	C38.951881,191.831528 38.903400,202.163315 38.957844,212.494537 
	C39.014206,223.190781 43.511375,231.433701 52.850224,236.830170 
	C81.981255,253.663574 111.127853,270.470093 140.287064,287.254639 
	C141.216125,287.789429 142.348785,287.970520 143.903336,288.488800 
	C143.903336,282.666016 143.539078,277.318451 144.006546,272.044617 
	C144.467239,266.847351 142.491318,264.054199 137.977936,261.512054 
	C113.601349,247.782013 89.441040,233.668472 65.157562,219.772064 
	C61.635155,217.756348 59.893040,215.223099 59.908279,210.987213 
	C60.023956,178.826309 60.005547,146.664719 59.922821,114.503624 
	C59.912979,110.677673 61.511459,108.274902 64.729561,106.487892 
	C70.262115,103.415672 75.701302,100.175507 81.184967,97.015015 
	C100.810097,85.704193 120.451462,74.421356 140.035751,63.040283 
	C141.510712,62.183136 143.611740,60.686611 143.674957,59.401386 
	C144.028687,52.209026 143.845169,44.990242 143.845169,37.173870 
	C141.886688,38.062683 140.808350,38.448093 139.831833,39.010342 
	C111.111061,55.546692 82.435966,72.162804 53.669209,88.618675 
	C43.349163,94.522202 38.858608,103.333046 38.923424,115.011055 
	C39.044586,136.840088 38.956287,158.670288 38.955151,181.500000 
z"/>
<path fill="#51C233" opacity="1.000000" stroke="none" 
	d="
M267.115326,150.000000 
	C267.112732,170.829468 266.983704,191.160019 267.156372,211.488007 
	C267.254913,223.088226 262.509491,231.623642 252.476730,237.393646 
	C224.178543,253.668304 195.916672,270.006104 167.628906,286.298920 
	C166.223297,287.108490 164.708420,287.728424 162.246536,288.919373 
	C162.246536,280.911804 162.096176,273.686096 162.396805,266.479187 
	C162.446030,265.298767 164.296982,263.882050 165.626602,263.112610 
	C190.277512,248.846970 214.929138,234.580826 239.706177,220.536346 
	C244.269547,217.949692 246.295334,214.933182 246.251999,209.485428 
	C246.006744,178.659882 245.984528,147.830170 246.255936,117.005127 
	C246.305161,111.414253 244.472168,108.099403 239.728546,105.403671 
	C215.835693,91.825722 192.132080,77.913666 168.187363,64.429054 
	C163.711411,61.908394 161.493683,59.300900 162.053894,53.958950 
	C162.603622,48.717102 162.173676,43.372513 162.173676,36.869450 
	C167.506744,39.759422 172.010315,42.074406 176.394714,44.596561 
	C201.080368,58.797142 225.645203,73.210808 250.445190,87.208176 
	C261.876984,93.660408 267.703247,102.676407 267.201599,116.010086 
	C266.782166,127.158691 267.115387,138.335617 267.115326,150.000000 
z"/>
<path fill="#51C233" opacity="1.000000" stroke="none" 
	d="
M38.955143,181.000000 
	C38.956287,158.670288 39.044586,136.840088 38.923424,115.011055 
	C38.858608,103.333046 43.349163,94.522202 53.669209,88.618675 
	C82.435966,72.162804 111.111061,55.546692 139.831833,39.010342 
	C140.808350,38.448093 141.886688,38.062683 143.845169,37.173870 
	C143.845169,44.990242 144.028687,52.209026 143.674957,59.401386 
	C143.611740,60.686611 141.510712,62.183136 140.035751,63.040283 
	C120.451462,74.421356 100.810097,85.704193 81.184967,97.015015 
	C75.701302,100.175507 70.262115,103.415672 64.729561,106.487892 
	C61.511459,108.274902 59.912979,110.677673 59.922821,114.503624 
	C60.005547,146.664719 60.023956,178.826309 59.908279,210.987213 
	C59.893040,215.223099 61.635155,217.756348 65.157562,219.772064 
	C89.441040,233.668472 113.601349,247.782013 137.977936,261.512054 
	C142.491318,264.054199 144.467239,266.847351 144.006546,272.044617 
	C143.539078,277.318451 143.903336,282.666016 143.903336,288.488800 
	C142.348785,287.970520 141.216125,287.789429 140.287064,287.254639 
	C111.127853,270.470093 81.981255,253.663574 52.850224,236.830170 
	C43.511375,231.433701 39.014206,223.190781 38.957844,212.494537 
	C38.903400,202.163315 38.951881,191.831528 38.955143,181.000000 
z"/>
<path fill="#4BC32C" opacity="1.000000" stroke="none" 
	d="
M139.037613,93.096725 
	C139.453674,93.012321 139.869751,92.927910 140.759949,93.064873 
	C141.692017,93.363365 142.362778,93.676537 142.577057,93.483368 
	C149.357742,87.370186 155.607651,89.538498 162.100800,94.231522 
	C164.569153,96.015579 165.719772,97.474205 165.195282,100.601578 
	C164.998032,101.777664 166.341568,103.965714 167.518204,104.489548 
	C172.912476,106.891083 178.496399,108.866608 184.099060,111.149094 
	C184.463211,111.233589 184.740524,111.164070 185.068375,111.026077 
	C185.118912,110.957611 185.078766,110.792213 185.373749,110.882812 
	C186.070099,111.039085 186.471481,111.104759 186.872864,111.170441 
	C186.872864,111.170441 186.989304,111.041412 186.998932,111.351089 
	C187.346191,112.080963 187.683838,112.501160 188.009583,113.281845 
	C188.590332,114.621735 189.182968,115.601128 189.775589,116.580536 
	C190.186417,116.047997 190.597244,115.515457 191.008072,114.982910 
	C191.950439,115.726257 192.892822,116.469604 193.955826,117.823235 
	C194.692429,118.988068 195.308411,119.542618 195.943665,120.327652 
	C195.962952,120.558128 195.997147,121.019455 196.040039,121.368195 
	C201.598175,129.285248 209.656357,126.772697 217.028580,127.399307 
	C217.027130,128.866180 217.020691,129.933014 216.636429,131.005814 
	C212.945068,130.635757 209.566452,130.543732 206.336273,129.803833 
	C203.106125,129.063934 200.125519,128.124481 198.113983,131.816910 
	C196.037643,135.628311 195.616653,139.201904 199.037277,142.663849 
	C200.078171,143.717316 200.371048,145.509872 200.747131,146.981934 
	C200.315262,147.016129 200.142746,147.032333 199.587570,147.034744 
	C198.701141,147.091599 198.197372,147.162262 197.498291,147.172241 
	C197.040466,146.986984 196.864578,146.786438 196.763947,146.210785 
	C196.478043,145.639023 196.203461,145.366440 195.578049,145.134155 
	C195.007858,145.259933 194.788498,145.345383 194.319931,145.358368 
	C193.654739,144.993225 193.238739,144.700562 192.761093,144.104767 
	C192.333679,143.699127 191.967880,143.596634 191.556259,143.498108 
	C191.510422,143.502075 191.418488,143.505814 191.573212,143.143311 
	C191.128128,141.172241 190.528336,139.563705 189.961487,137.715317 
	C189.994446,137.475479 190.074081,136.997879 190.444427,136.985626 
	C191.512329,136.280869 192.209885,135.588364 192.907440,134.895874 
	C191.979004,134.264954 191.050583,133.634033 190.089630,132.628098 
	C190.077759,131.501389 190.098419,130.749695 190.492249,129.997742 
	C192.486694,129.560043 194.107971,129.122604 197.192596,128.290359 
	C194.354279,126.305290 192.715927,125.159462 191.069244,123.619705 
	C191.171188,120.377068 190.048676,118.740173 186.976715,119.024277 
	C187.002380,119.003769 186.957382,119.053329 186.950897,118.699142 
	C183.234940,113.555786 178.597885,110.486649 172.202454,110.490883 
	C172.084091,110.523148 171.887390,110.376511 171.757324,110.026535 
	C169.590179,109.552933 167.125336,108.654518 165.616501,109.487602 
	C163.364227,110.731178 162.129013,113.955368 159.850327,114.984283 
	C154.781418,117.273079 152.203568,120.649841 152.457382,126.195526 
	C152.458527,126.220772 151.890884,126.272057 150.731262,126.422264 
	C153.128510,119.462234 147.872864,117.599915 143.470444,114.933258 
	C141.140015,113.521637 139.163712,111.525352 137.020325,109.429108 
	C136.659103,107.682320 136.305084,106.299446 135.971436,104.602417 
	C136.000687,103.867012 136.009567,103.445763 136.009521,103.011795 
	C136.000610,102.999084 136.025772,103.018486 136.399689,102.941910 
	C137.511230,99.894196 138.248840,96.923042 139.029312,93.739906 
	C139.072174,93.527916 139.037613,93.096733 139.037613,93.096725 
z"/>
<path fill="#6DC055" opacity="1.000000" stroke="none" 
	d="
M217.014252,130.999832 
	C217.020691,129.933014 217.027130,128.866180 216.994049,127.043137 
	C215.273865,124.274940 213.593216,122.262970 212.233795,120.263138 
	C213.357254,120.546692 214.159485,120.818115 214.961716,121.089539 
	C216.509674,122.218987 218.057617,123.348427 219.745544,125.200562 
	C219.947342,130.958115 220.009171,135.992981 220.071014,141.027847 
	C219.964432,141.348297 219.857849,141.668732 219.409271,142.351990 
	C218.027649,143.440521 216.988037,144.166214 215.948410,144.891891 
	C215.408783,145.098373 214.869171,145.304871 213.864502,145.817963 
	C213.262360,147.093903 213.125259,148.063217 212.988174,149.032547 
	C213.054367,149.755936 213.120560,150.479309 213.202393,151.974915 
	C213.270721,159.860718 213.323410,166.974289 213.376099,174.087860 
	C213.237793,174.801910 213.099487,175.515976 212.740036,176.791443 
	C213.010376,178.245972 213.501846,179.139069 213.993317,180.032166 
	C214.452728,180.360641 214.912140,180.689102 215.778229,181.334930 
	C216.828232,181.970657 217.471573,182.289017 218.114899,182.607361 
	C218.309174,182.913818 218.503433,183.220261 218.767761,184.227112 
	C218.916290,188.953247 218.994781,192.978989 219.073273,197.004730 
	C218.835144,198.473083 218.597015,199.941452 217.883545,201.756409 
	C216.581863,202.712280 215.755524,203.321579 214.929199,203.930878 
	C214.929199,203.930878 215.009232,203.980606 214.652374,203.969635 
	C213.457870,204.599472 212.620224,205.240265 211.782562,205.881073 
	C211.283463,206.070755 210.784363,206.260452 209.766876,206.695618 
	C208.179642,207.334396 207.110825,207.727676 206.058609,207.756409 
	C208.425888,205.469116 210.655151,203.368927 213.152176,201.660004 
	C218.571915,197.950806 218.681641,187.388077 213.591568,183.013702 
	C212.119827,181.748917 211.201065,179.101746 211.143524,177.056946 
	C210.880539,167.710617 211.013840,158.353119 211.011566,148.599701 
	C211.012772,147.133194 211.007172,146.066589 211.014648,144.767303 
	C211.027725,144.534607 211.048141,144.068939 211.426239,144.055328 
	C213.525955,142.499344 216.095673,141.251602 216.759125,139.341675 
	C217.630203,136.834091 216.999252,133.804779 217.014252,130.999832 
z"/>
<path fill="#4BC32B" opacity="1.000000" stroke="none" 
	d="
M211.912567,120.251007 
	C213.593216,122.262970 215.273865,124.274940 216.989044,126.643089 
	C209.656357,126.772697 201.598175,129.285248 196.373688,121.371277 
	C197.107864,120.994125 197.551254,120.962654 198.344940,120.874176 
	C199.038757,120.043907 199.382263,119.270630 199.687500,118.300079 
	C199.649231,118.102798 199.304001,117.897011 199.304001,117.897011 
	C199.474426,117.841393 199.644836,117.785774 200.361435,117.467941 
	C203.251343,117.180962 205.595062,117.156197 207.938782,117.131439 
	C207.938782,117.131439 207.990631,117.527184 207.983612,118.044952 
	C208.280487,119.242226 208.584381,119.921738 208.888275,120.601242 
	C209.425064,120.082710 209.961868,119.564178 210.716339,119.266464 
	C211.260193,119.741852 211.586380,119.996429 211.912567,120.251007 
z"/>
<path fill="#71C25B" opacity="1.000000" stroke="none" 
	d="
M184.012238,110.995079 
	C178.496399,108.866608 172.912476,106.891083 167.518204,104.489548 
	C166.341568,103.965714 164.998032,101.777664 165.195282,100.601578 
	C165.719772,97.474205 164.569153,96.015579 162.100800,94.231522 
	C155.607651,89.538498 149.357742,87.370186 142.577057,93.483368 
	C142.362778,93.676537 141.692017,93.363365 141.071899,92.994080 
	C141.194275,92.312675 141.478821,91.923431 142.252670,91.295647 
	C144.236801,90.083107 145.731644,89.109108 147.226471,88.135117 
	C148.907593,87.457718 150.588715,86.780319 152.810638,86.377426 
	C154.904587,87.433327 156.457764,88.214722 158.010925,88.996109 
	C158.454224,89.314331 158.897522,89.632553 159.809128,90.281204 
	C162.470871,91.795509 164.664322,92.979393 166.857773,94.163277 
	C166.857773,94.163277 166.985199,94.033257 166.970093,94.485352 
	C166.891495,100.501419 168.465759,104.724236 175.060654,104.835663 
	C176.294540,105.344666 177.528427,105.853661 179.279388,106.679352 
	C181.174072,107.695351 182.551666,108.394653 183.929260,109.093956 
	C183.929260,109.093956 184.008179,109.018372 184.069885,109.287987 
	C184.447311,109.969139 184.763031,110.380676 185.078766,110.792213 
	C185.078766,110.792213 185.118912,110.957611 184.817886,110.992737 
	C184.348663,111.016937 184.180450,111.006012 184.012238,110.995079 
z"/>
<path fill="#6EBF56" opacity="1.000000" stroke="none" 
	d="
M86.157753,184.007355 
	C86.623695,183.440353 87.089638,182.873352 88.112549,182.120056 
	C94.056595,179.723282 90.605103,176.113297 90.089119,172.968109 
	C90.061058,172.530350 90.033005,172.092606 89.990036,170.870316 
	C90.249435,163.382385 90.523735,156.679001 90.798042,149.975601 
	C90.893730,149.551880 90.989410,149.128159 91.316757,148.182449 
	C91.740486,147.108109 91.932549,146.555756 92.378098,146.302460 
	C92.704926,149.050568 92.778259,151.499588 92.591614,154.243134 
	C92.203934,158.930405 91.921959,163.325882 91.999191,167.715042 
	C92.057083,171.005585 92.977295,174.315628 92.753181,177.564529 
	C92.599533,179.791946 91.203743,181.957779 90.242287,184.096786 
	C89.613632,185.495392 88.138481,186.795059 88.134819,188.142014 
	C88.122116,192.803375 88.587837,197.466049 88.560623,202.123535 
	C87.840210,202.063538 87.430611,202.008240 87.021019,201.952957 
	C86.727295,200.862503 86.433571,199.772034 86.177109,197.920563 
	C86.145729,195.435623 86.077087,193.711670 86.008446,191.987732 
	C86.043411,190.605164 86.078377,189.222580 86.161385,187.060089 
	C86.192200,185.522568 86.174980,184.764969 86.157753,184.007355 
z"/>
<path fill="#51BF35" opacity="1.000000" stroke="none" 
	d="
M135.951065,104.916580 
	C136.305084,106.299446 136.659103,107.682320 136.823212,109.462357 
	C136.633301,109.859520 136.242233,109.937347 135.864120,109.879623 
	C134.977066,109.814087 134.468109,109.806282 133.856445,109.605347 
	C133.537109,109.205864 133.283829,109.065773 132.954391,108.696091 
	C132.503693,108.093636 132.092499,107.787018 131.681305,107.480408 
	C131.450409,107.999901 131.219498,108.519394 130.658966,109.077911 
	C129.200394,110.323425 128.071487,111.529907 126.724854,112.892136 
	C126.168564,113.156311 125.829987,113.264740 125.143631,113.287712 
	C124.189087,113.772446 123.582306,114.342644 122.845947,115.038177 
	C122.716362,115.163506 122.368591,115.258621 121.994431,115.197289 
	C119.425606,116.118225 117.230934,117.100494 114.852402,117.819862 
	C114.070984,117.341103 113.473427,117.125244 112.903091,116.562180 
	C112.918465,115.751862 112.906609,115.288750 112.894753,114.825630 
	C112.894753,114.825630 112.948517,114.431419 113.244919,114.187958 
	C113.741127,113.664635 113.940918,113.384781 114.140717,113.104927 
	C114.140717,113.104927 114.021004,113.070526 114.359680,113.120804 
	C115.078125,113.081818 115.457893,112.992569 116.181839,112.908333 
	C116.939926,112.447319 117.353828,111.981285 117.731140,111.332397 
	C117.694565,111.149551 117.404770,110.914795 117.404770,110.914795 
	C117.404770,110.914795 117.847900,110.712227 118.288055,110.440857 
	C118.997200,109.869392 119.266190,109.569290 119.535172,109.269196 
	C119.535172,109.269188 119.806854,109.317230 120.211487,109.202461 
	C120.900345,108.806206 121.184570,108.524727 121.468796,108.243240 
	C121.468788,108.243240 121.797157,108.417908 122.244095,108.654877 
	C123.775429,108.212852 124.859825,107.533867 126.082489,106.761955 
	C126.220741,106.669037 126.553841,106.662979 126.937508,106.759163 
	C128.518402,106.169197 129.715622,105.483047 131.129684,104.606003 
	C131.908325,104.322693 132.470139,104.230270 133.243988,104.373566 
	C134.287720,104.711708 135.119385,104.814140 135.951065,104.916580 
z"/>
<path fill="#6EBF56" opacity="1.000000" stroke="none" 
	d="
M86.194237,141.697815 
	C86.194237,141.697815 86.199623,141.335236 86.194977,140.833771 
	C86.132835,139.884628 86.075348,139.436935 86.017853,138.989243 
	C86.059013,135.300354 86.100174,131.611465 86.177063,127.140022 
	C86.185158,125.910965 86.157524,125.464447 86.129898,125.017937 
	C86.983170,124.215324 87.836441,123.412712 89.220993,122.338982 
	C91.244453,121.089844 92.736633,120.111809 94.228806,119.133789 
	C95.717102,118.344078 97.205391,117.554367 99.199127,116.454155 
	C99.979500,115.870514 100.254417,115.597382 100.529343,115.324249 
	C101.316414,115.318428 102.103485,115.312607 103.341202,115.596252 
	C104.529793,116.606514 105.267746,117.327309 105.778725,118.294174 
	C98.614433,117.309151 94.092857,121.921814 89.141975,125.416962 
	C88.620399,125.785179 88.346146,126.862129 88.374580,127.594040 
	C88.592941,133.215240 87.470078,139.055939 90.565353,144.151611 
	C88.883324,143.309402 87.538780,142.503616 86.194237,141.697815 
z"/>
<path fill="#D8F8D0" opacity="1.000000" stroke="none" 
	d="
M175.922028,220.787506 
	C175.907257,220.951859 175.949829,221.221848 175.869507,221.265457 
	C171.583466,223.592468 167.982834,225.987717 168.250763,232.039062 
	C168.309326,233.361343 163.093903,234.917145 160.230621,235.858978 
	C160.504654,234.974045 160.855438,234.595535 161.424133,234.104202 
	C161.890656,233.766663 162.071014,233.496399 162.550842,233.135132 
	C166.342346,231.928238 167.712265,229.545013 167.217590,225.657928 
	C170.174683,223.804428 173.048355,222.295959 175.922028,220.787506 
z"/>
<path fill="#6DC055" opacity="1.000000" stroke="none" 
	d="
M176.062775,220.721649 
	C173.048355,222.295959 170.174683,223.804428 166.888062,225.657562 
	C166.037109,226.002808 165.599091,226.003403 165.253235,225.661438 
	C166.168442,223.964371 166.680252,221.893509 167.867676,221.377594 
	C173.423706,218.963531 179.165939,216.977951 184.939835,214.946747 
	C185.038040,215.054214 185.231857,215.271515 185.080994,215.474243 
	C184.589478,216.038452 184.248825,216.399918 183.908157,216.761383 
	C182.123550,217.684952 180.338943,218.608521 177.978973,219.738953 
	C177.106110,220.197266 176.808609,220.448730 176.511093,220.700180 
	C176.511093,220.700180 176.203506,220.655792 176.062775,220.721649 
z"/>
<path fill="#D8F8D0" opacity="1.000000" stroke="none" 
	d="
M206.042007,208.120972 
	C207.110825,207.727676 208.179642,207.334396 209.590759,206.899841 
	C207.884399,208.953003 205.835739,211.047440 204.715363,212.192871 
	C200.441696,211.352249 197.267487,210.727905 193.612457,210.109161 
	C193.131638,210.114761 192.985565,209.988464 193.001923,209.742889 
	C193.018295,209.497299 193.010529,209.004990 193.005264,209.002197 
	C193.000000,208.999390 193.005020,209.009842 193.339111,208.904678 
	C195.693008,208.624664 197.714859,208.298569 199.731934,208.325775 
	C201.183456,208.345367 202.628616,208.836105 204.358109,209.072693 
	C205.107071,208.726135 205.574539,208.423553 206.042007,208.120972 
z"/>
<path fill="#D8F8D0" opacity="1.000000" stroke="none" 
	d="
M213.715942,173.945587 
	C213.323410,166.974289 213.270721,159.860718 213.293564,152.327789 
	C214.231262,154.901535 215.783203,157.892807 215.791092,160.888138 
	C215.802444,165.191635 214.689056,169.498108 213.715942,173.945587 
z"/>
<path fill="#D8F8D0" opacity="1.000000" stroke="none" 
	d="
M90.501907,150.182556 
	C90.523735,156.679001 90.249435,163.382385 89.907867,170.550995 
	C86.683418,164.082581 87.131981,157.212814 90.501907,150.182556 
z"/>
<path fill="#D8F8D0" opacity="1.000000" stroke="none" 
	d="
M111.849808,211.073120 
	C108.705246,211.280350 105.523888,211.860474 102.429893,211.555206 
	C100.567574,211.371460 98.841278,209.809052 97.009720,208.450226 
	C96.965576,208.034241 97.131424,207.839432 97.437790,207.884109 
	C98.152679,207.978882 98.561203,208.028976 99.159958,208.292145 
	C99.882675,208.698013 100.415169,208.890823 101.094376,209.310333 
	C101.844658,209.391220 102.448227,209.245422 103.336151,209.050674 
	C104.095764,208.695297 104.571022,208.388885 105.338974,208.077881 
	C106.095062,207.756058 106.558456,207.438828 107.262398,207.111725 
	C107.502937,207.101822 107.977928,207.022995 108.151443,207.289429 
	C109.499901,208.728287 110.674858,209.900711 111.849808,211.073120 
z"/>
<path fill="#D8F8D0" opacity="1.000000" stroke="none" 
	d="
M133.031952,104.137848 
	C132.470139,104.230270 131.908325,104.322693 130.781891,104.617294 
	C128.996140,105.433968 127.774986,106.048470 126.553833,106.662979 
	C126.553841,106.662979 126.220741,106.669037 125.725769,106.777191 
	C124.527802,107.004349 123.824799,107.123360 123.121796,107.242371 
	C124.521317,106.095459 125.832390,104.812576 127.340057,103.831955 
	C129.919235,102.154396 132.621552,100.666130 135.712738,99.431473 
	C136.110794,100.849205 136.068283,101.933846 136.025757,103.018486 
	C136.025772,103.018486 136.000610,102.999084 135.670807,103.003708 
	C134.571320,103.384842 133.801636,103.761345 133.031952,104.137848 
z"/>
<path fill="#D8F8D0" opacity="1.000000" stroke="none" 
	d="
M220.457489,140.922760 
	C220.009171,135.992981 219.947342,130.958115 219.939606,125.457977 
	C220.538391,125.310074 221.565521,125.643028 221.555832,125.942513 
	C221.395630,130.903397 221.105225,135.860062 220.457489,140.922760 
z"/>
<path fill="#D8F8D0" opacity="1.000000" stroke="none" 
	d="
M174.996552,104.490738 
	C168.465759,104.724236 166.891495,100.501419 166.895050,94.536865 
	C167.309875,94.243126 168.199844,94.350578 168.199677,94.456696 
	C168.192444,99.270836 171.559174,101.707428 174.996552,104.490738 
z"/>
<path fill="#6EBF56" opacity="1.000000" stroke="none" 
	d="
M161.206238,234.217010 
	C160.855438,234.595535 160.504654,234.974045 160.046829,235.588974 
	C159.413605,236.051117 158.887421,236.276825 157.835388,236.749786 
	C155.852875,237.927521 154.396225,238.858017 152.939590,239.788513 
	C152.514740,239.813797 152.089890,239.839081 151.174088,239.635376 
	C149.971695,238.719315 149.260254,238.032227 148.927887,237.265167 
	C150.942398,236.898834 152.624207,236.766022 154.202240,236.289505 
	C156.467514,235.605484 158.657104,234.670914 160.959625,233.937759 
	C161.040237,234.032227 161.206223,234.217010 161.206238,234.217010 
z"/>
<path fill="#D8F8D0" opacity="1.000000" stroke="none" 
	d="
M136.846252,232.151855 
	C135.225189,229.094589 133.604141,226.037338 132.305267,222.575607 
	C133.754242,222.441193 134.881012,222.711243 136.005783,222.991135 
	C136.003784,223.000977 136.019592,222.992340 136.040939,223.414093 
	C136.453430,226.476044 136.844589,229.116241 137.138657,231.855591 
	C137.041565,231.954742 136.846252,232.151855 136.846252,232.151855 
z"/>
<path fill="#6EBF56" opacity="1.000000" stroke="none" 
	d="
M136.007782,222.981293 
	C134.881012,222.711243 133.754242,222.441193 132.280228,222.212128 
	C130.194016,221.529404 128.455048,220.805679 126.189346,219.777618 
	C124.646271,218.743851 123.629913,218.014420 123.018539,217.198364 
	C127.590530,218.425598 131.757538,219.739471 135.953827,221.373489 
	C135.991318,222.122849 135.999542,222.552063 136.007782,222.981293 
z"/>
<path fill="#D8F8D0" opacity="1.000000" stroke="none" 
	d="
M89.812119,173.191772 
	C90.605103,176.113297 94.056595,179.723282 88.315536,181.932312 
	C88.486076,179.092361 89.010605,176.253891 89.812119,173.191772 
z"/>
<path fill="#D8F8D0" opacity="1.000000" stroke="none" 
	d="
M122.613564,217.284988 
	C123.629913,218.014420 124.646271,218.743851 125.837898,219.732773 
	C122.212288,221.807419 120.518433,218.360016 118.065536,216.373428 
	C118.066139,215.936920 118.284317,215.716278 118.599670,215.818161 
	C119.946114,216.295807 120.977211,216.671570 122.147369,217.137955 
	C122.286438,217.228561 122.613564,217.284988 122.613564,217.284988 
z"/>
<path fill="#71C25B" opacity="1.000000" stroke="none" 
	d="
M136.399689,102.941910 
	C136.068283,101.933846 136.110794,100.849205 136.052460,99.368530 
	C135.986832,98.535797 136.022034,98.099098 136.165680,97.059242 
	C136.540802,95.655533 136.807480,94.854980 137.074173,94.054428 
	C137.074173,94.054428 137.005798,94.002525 137.352905,94.031967 
	C138.128815,94.024902 138.557632,93.988396 138.986450,93.951897 
	C138.248840,96.923042 137.511230,99.894196 136.399689,102.941910 
z"/>
<path fill="#D8F8D0" opacity="1.000000" stroke="none" 
	d="
M106.005699,118.048111 
	C105.267746,117.327309 104.529793,116.606514 103.637093,115.611298 
	C105.690285,115.421021 107.898232,115.505165 110.434311,116.017281 
	C110.818336,116.619659 110.874214,116.794067 110.811996,117.164627 
	C110.503075,117.609009 110.263298,117.793671 109.713699,117.918381 
	C109.218124,118.162628 108.983429,118.403259 108.723694,118.651917 
	C108.698647,118.659958 108.660736,118.623497 108.512497,118.587372 
	C108.364265,118.551247 108.087906,118.680641 107.829796,118.593140 
	C107.049690,118.353134 106.527695,118.200623 106.005699,118.048111 
z"/>
<path fill="#D8F8D0" opacity="1.000000" stroke="none" 
	d="
M148.548813,237.345139 
	C149.260254,238.032227 149.971695,238.719315 150.855408,239.654144 
	C147.094360,242.149643 146.247498,238.005447 144.421814,236.259247 
	C145.825195,236.345352 146.905975,236.728546 148.115051,237.198944 
	C148.243332,237.286133 148.548813,237.345139 148.548813,237.345139 
z"/>
<path fill="#D8F8D0" opacity="1.000000" stroke="none" 
	d="
M86.134193,142.079620 
	C87.538780,142.503616 88.883324,143.309402 90.725327,144.376144 
	C91.523384,145.092529 91.823997,145.547974 92.124611,146.003403 
	C91.932549,146.555756 91.740486,147.108109 91.331276,147.856506 
	C89.434143,146.188843 87.754143,144.325134 86.134193,142.079620 
z"/>
<path fill="#D8F8D0" opacity="1.000000" stroke="none" 
	d="
M207.918854,116.773232 
	C205.595062,117.156197 203.251343,117.180962 200.539871,117.266800 
	C202.275574,113.027122 204.974396,113.765831 207.918854,116.773232 
z"/>
<path fill="#D8F8D0" opacity="1.000000" stroke="none" 
	d="
M166.872864,93.789612 
	C164.664322,92.979393 162.470871,91.795509 160.082153,90.334045 
	C162.220566,91.176292 164.554260,92.296120 166.872864,93.789612 
z"/>
<path fill="#D8F8D0" opacity="1.000000" stroke="none" 
	d="
M219.340363,196.694870 
	C218.994781,192.978989 218.916290,188.953247 218.894974,184.467682 
	C219.170593,188.133560 219.389023,192.259293 219.340363,196.694870 
z"/>
<path fill="#D8F8D0" opacity="1.000000" stroke="none" 
	d="
M87.040741,202.313416 
	C87.430611,202.008240 87.840210,202.063538 88.568283,202.105621 
	C88.886765,202.092422 88.895012,202.110001 89.054314,202.401031 
	C90.781036,203.497437 92.348465,204.302811 93.941071,205.051544 
	C93.966255,204.994904 93.890099,205.092957 93.912262,205.312744 
	C93.934425,205.532516 94.035690,205.962555 93.965683,206.029144 
	C93.895676,206.095718 93.752014,206.224960 93.752014,206.224960 
	C91.521492,205.041260 89.290977,203.857574 87.040741,202.313416 
z"/>
<path fill="#D8F8D0" opacity="1.000000" stroke="none" 
	d="
M85.645683,192.066986 
	C86.077087,193.711670 86.145729,195.435623 86.118942,197.582062 
	C82.679085,196.443375 83.661537,194.335205 85.645683,192.066986 
z"/>
<path fill="#6EBF56" opacity="1.000000" stroke="none" 
	d="
M147.986771,237.111755 
	C146.905975,236.728546 145.825195,236.345352 144.399811,235.911209 
	C143.586090,235.537918 143.116989,235.215561 142.247894,234.588928 
	C141.540237,233.880569 141.232559,233.476456 141.303253,233.041046 
	C143.783325,234.377090 145.885056,235.744431 147.986771,237.111755 
z"/>
<path fill="#D8F8D0" opacity="1.000000" stroke="none" 
	d="
M153.130005,240.075165 
	C154.396225,238.858017 155.852875,237.927521 157.639694,236.961090 
	C157.391464,239.384949 156.542313,241.478424 153.130005,240.075165 
z"/>
<path fill="#D8F8D0" opacity="1.000000" stroke="none" 
	d="
M157.977020,88.647690 
	C156.457764,88.214722 154.904587,87.433327 153.158417,86.390289 
	C155.930847,83.856743 156.828354,86.327072 157.977020,88.647690 
z"/>
<path fill="#D8F8D0" opacity="1.000000" stroke="none" 
	d="
M140.924896,233.072342 
	C141.232559,233.476456 141.540237,233.880569 141.967987,234.513153 
	C140.415176,234.083435 138.742294,233.425217 136.957825,232.459442 
	C136.846252,232.151855 137.041565,231.954742 137.459213,231.938416 
	C138.900070,232.306747 139.923279,232.691376 140.953156,233.064575 
	C140.959824,233.053146 140.924896,233.072342 140.924896,233.072342 
z"/>
<path fill="#D8F8D0" opacity="1.000000" stroke="none" 
	d="
M146.826004,88.086212 
	C145.731644,89.109108 144.236801,90.083107 142.403107,91.097748 
	C143.518005,90.104691 144.971771,89.070992 146.826004,88.086212 
z"/>
<path fill="#D8F8D0" opacity="1.000000" stroke="none" 
	d="
M193.207306,210.174713 
	C191.781586,211.500885 190.280197,212.767075 188.493500,213.766907 
	C188.508957,213.043716 188.809692,212.586899 189.091171,212.121353 
	C189.071915,212.112640 189.095657,212.113007 189.414795,212.075958 
	C190.817810,211.355423 191.901688,210.671936 192.985565,209.988464 
	C192.985565,209.988464 193.131638,210.114761 193.207306,210.174713 
z"/>
<path fill="#6EBF56" opacity="1.000000" stroke="none" 
	d="
M112.982697,212.028870 
	C112.982697,212.028870 112.885994,211.609161 112.965645,211.283234 
	C113.045296,210.957306 113.262672,210.734329 113.607384,210.822052 
	C115.228554,212.078674 116.505013,213.247574 117.449051,214.355499 
	C116.481209,214.068573 115.845802,213.842636 115.210396,213.616699 
	C115.051445,213.367661 114.839233,213.178329 114.247116,212.753815 
	C113.607895,212.315567 113.295296,212.172211 112.982697,212.028870 
z"/>
<path fill="#6EBF56" opacity="1.000000" stroke="none" 
	d="
M112.094116,211.105530 
	C110.674858,209.900711 109.499901,208.728287 108.523262,207.258667 
	C110.235275,208.219086 111.748970,209.476715 113.262672,210.734329 
	C113.262672,210.734329 113.045296,210.957306 112.937309,211.069733 
	C112.829323,211.182175 112.338425,211.137955 112.094116,211.105530 
z"/>
<path fill="#6DC055" opacity="1.000000" stroke="none" 
	d="
M190.962952,114.718948 
	C190.597244,115.515457 190.186417,116.047997 189.775589,116.580536 
	C189.182968,115.601128 188.590332,114.621735 188.324066,113.308624 
	C189.060944,113.061279 189.471451,113.147644 189.881989,113.234009 
	C190.227264,113.640991 190.572540,114.047981 190.962952,114.718948 
z"/>
<path fill="#D8F8D0" opacity="1.000000" stroke="none" 
	d="
M183.906860,108.707649 
	C182.551666,108.394653 181.174072,107.695351 179.610504,106.721527 
	C180.911179,107.071785 182.397827,107.696564 183.906860,108.707649 
z"/>
<path fill="#D8F8D0" opacity="1.000000" stroke="none" 
	d="
M93.842468,119.090942 
	C92.736633,120.111809 91.244453,121.089844 89.413712,122.112122 
	C90.535484,121.120285 91.995811,120.084198 93.842468,119.090942 
z"/>
<path fill="#D8F8D0" opacity="1.000000" stroke="none" 
	d="
M216.164886,145.168762 
	C216.988037,144.166214 218.027649,143.440521 219.367340,142.601898 
	C219.897934,144.948074 219.199020,146.374252 216.164886,145.168762 
z"/>
<path fill="#6DC055" opacity="1.000000" stroke="none" 
	d="
M189.110428,212.130066 
	C188.809692,212.586899 188.508957,213.043716 188.123108,213.763550 
	C187.712860,214.082855 187.433289,214.227356 186.774323,214.691498 
	C185.976822,215.039139 185.604340,215.155319 185.231857,215.271515 
	C185.231857,215.271515 185.038040,215.054214 184.998840,214.657227 
	C184.992767,213.866257 185.025879,213.472275 185.378937,212.922363 
	C186.836060,212.554321 187.973251,212.342194 189.110428,212.130066 
z"/>
<path fill="#6DC055" opacity="1.000000" stroke="none" 
	d="
M210.498672,119.045654 
	C209.961868,119.564178 209.425064,120.082710 208.888275,120.601242 
	C208.584381,119.921738 208.280487,119.242226 208.007385,118.243088 
	C208.620468,118.030807 209.202774,118.138168 210.101089,118.467064 
	C210.417114,118.688606 210.498672,119.045654 210.498672,119.045654 
z"/>
<path fill="#71C25B" opacity="1.000000" stroke="none" 
	d="
M122.941498,107.458069 
	C123.824799,107.123360 124.527802,107.004349 125.587517,106.870110 
	C124.859825,107.533867 123.775429,108.212852 122.410126,108.738655 
	C122.339882,108.281570 122.550545,107.977669 122.941498,107.458069 
z"/>
<path fill="#D8F8D0" opacity="1.000000" stroke="none" 
	d="
M210.716339,119.266464 
	C210.498672,119.045654 210.417114,118.688606 210.398956,118.507568 
	C211.880524,119.007751 213.380249,119.688965 214.920853,120.729858 
	C214.159485,120.818115 213.357254,120.546692 212.233795,120.263138 
	C211.586380,119.996429 211.260193,119.741852 210.716339,119.266464 
z"/>
<path fill="#D8F8D0" opacity="1.000000" stroke="none" 
	d="
M185.080994,215.474243 
	C185.604340,215.155319 185.976822,215.039139 186.640411,214.889465 
	C186.040787,215.671753 185.150070,216.487518 184.083755,217.032333 
	C184.248825,216.399918 184.589478,216.038452 185.080994,215.474243 
z"/>
<path fill="#D8F8D0" opacity="1.000000" stroke="none" 
	d="
M115.189095,213.981415 
	C115.845802,213.842636 116.481209,214.068573 117.542152,214.504211 
	C117.967682,214.713928 118.264061,214.906967 118.241989,215.109970 
	C118.219917,215.312973 118.284317,215.716278 118.284317,215.716278 
	C118.284317,215.716278 118.066139,215.936920 117.957092,216.049774 
	C116.954636,215.557129 116.061218,214.951630 115.189095,213.981415 
z"/>
<path fill="#D8F8D0" opacity="1.000000" stroke="none" 
	d="
M199.040649,117.815147 
	C199.304001,117.897011 199.649231,118.102798 199.382446,118.340271 
	C198.745911,118.752388 198.376160,118.927032 197.669159,119.086433 
	C196.881775,119.069611 196.431641,119.068039 195.945221,118.854950 
	C195.908920,118.643433 195.912750,118.214233 195.912750,118.214233 
	C196.867599,118.053917 197.822449,117.893600 199.040649,117.815147 
z"/>
<path fill="#D8F8D0" opacity="1.000000" stroke="none" 
	d="
M117.071632,110.907761 
	C117.404770,110.914795 117.694565,111.149551 117.432442,111.415283 
	C116.726105,112.088455 116.281883,112.495895 115.837662,112.903320 
	C115.457893,112.992569 115.078125,113.081818 114.406204,113.162201 
	C114.988853,112.402458 115.863678,111.651588 117.071632,110.907761 
z"/>
<path fill="#D8F8D0" opacity="1.000000" stroke="none" 
	d="
M218.091217,182.306381 
	C217.471573,182.289017 216.828232,181.970657 216.057739,181.402161 
	C216.642899,181.436478 217.355209,181.720932 218.091217,182.306381 
z"/>
<path fill="#D8F8D0" opacity="1.000000" stroke="none" 
	d="
M212.157654,205.930313 
	C212.620224,205.240265 213.457870,204.599472 214.617096,203.937271 
	C214.136703,204.603775 213.334732,205.291672 212.157654,205.930313 
z"/>
<path fill="#D8F8D0" opacity="1.000000" stroke="none" 
	d="
M215.282349,203.967651 
	C215.755524,203.321579 216.581863,202.712280 217.727814,202.097443 
	C217.243469,202.729431 216.439499,203.366943 215.282349,203.967651 
z"/>
<path fill="#D8F8D0" opacity="1.000000" stroke="none" 
	d="
M136.745239,94.066269 
	C136.807480,94.854980 136.540802,95.655533 136.115921,96.733231 
	C136.110596,96.032944 136.263458,95.055527 136.745239,94.066269 
z"/>
<path fill="#D8F8D0" opacity="1.000000" stroke="none" 
	d="
M96.883423,208.132294 
	C95.877510,207.759201 94.953743,207.288055 93.890999,206.520935 
	C93.752014,206.224960 93.895676,206.095718 94.273438,206.069611 
	C95.059814,206.097977 95.468430,206.152466 95.905251,206.118317 
	C95.933449,206.029678 95.837440,206.189026 95.947540,206.430634 
	C96.415573,207.061295 96.773499,207.450363 97.131424,207.839432 
	C97.131424,207.839432 96.965576,208.034241 96.883423,208.132294 
z"/>
<path fill="#D8F8D0" opacity="1.000000" stroke="none" 
	d="
M213.253677,148.820938 
	C213.125259,148.063217 213.262360,147.093903 213.689468,146.051147 
	C213.826050,146.854935 213.672623,147.732132 213.253677,148.820938 
z"/>
<path fill="#D8F8D0" opacity="1.000000" stroke="none" 
	d="
M214.003113,179.686005 
	C213.501846,179.139069 213.010376,178.245972 212.734207,177.155914 
	C213.303970,177.752609 213.658432,178.546234 214.003113,179.686005 
z"/>
<path fill="#D8F8D0" opacity="1.000000" stroke="none" 
	d="
M189.871628,112.860382 
	C189.471451,113.147644 189.060944,113.061279 188.335938,112.948135 
	C187.683838,112.501160 187.346191,112.080963 186.928192,111.401550 
	C187.852310,111.590477 188.856796,112.038612 189.871628,112.860382 
z"/>
<path fill="#D8F8D0" opacity="1.000000" stroke="none" 
	d="
M185.373749,110.882812 
	C184.763031,110.380676 184.447311,109.969139 184.024719,109.317871 
	C184.902176,109.532921 185.886520,109.987686 186.871857,110.806442 
	C186.471481,111.104759 186.070099,111.039085 185.373749,110.882812 
z"/>
<path fill="#D8F8D0" opacity="1.000000" stroke="none" 
	d="
M139.029312,93.739906 
	C138.557632,93.988396 138.128815,94.024902 137.376312,94.067924 
	C137.608200,93.585159 138.163757,93.095871 138.878464,92.851654 
	C139.037613,93.096733 139.072174,93.527916 139.029312,93.739906 
z"/>
<path fill="#6DC055" opacity="1.000000" stroke="none" 
	d="
M195.615753,118.127716 
	C195.912750,118.214233 195.908920,118.643433 195.940308,119.112999 
	C195.955933,119.754089 195.940155,119.925621 195.924393,120.097168 
	C195.308411,119.542618 194.692429,118.988068 194.100098,118.094597 
	C194.522079,117.850853 194.920425,117.946030 195.615753,118.127716 
z"/>
<path fill="#71C25B" opacity="1.000000" stroke="none" 
	d="
M110.930099,116.968475 
	C110.874214,116.794067 110.818336,116.619659 110.708755,116.175560 
	C111.200394,115.600220 111.745743,115.294586 112.592926,114.907288 
	C112.906609,115.288750 112.918465,115.751862 112.580658,116.584579 
	C111.797371,116.958939 111.363731,116.963707 110.930099,116.968475 
z"/>
<path fill="#D8F8D0" opacity="1.000000" stroke="none" 
	d="
M85.882050,184.167023 
	C86.174980,184.764969 86.192200,185.522568 86.110321,186.647736 
	C85.876266,186.119080 85.741302,185.222885 85.882050,184.167023 
z"/>
<path fill="#D8F8D0" opacity="1.000000" stroke="none" 
	d="
M85.785957,139.134918 
	C86.075348,139.436935 86.132835,139.884628 86.124664,140.666641 
	C85.890686,140.427505 85.722374,139.854050 85.785957,139.134918 
z"/>
<path fill="#D8F8D0" opacity="1.000000" stroke="none" 
	d="
M85.883423,125.142281 
	C86.157524,125.464447 86.185158,125.910965 86.123154,126.682449 
	C85.901329,126.427155 85.769142,125.846886 85.883423,125.142281 
z"/>
<path fill="#D8F8D0" opacity="1.000000" stroke="none" 
	d="
M121.154305,108.244980 
	C121.184570,108.524727 120.900345,108.806206 120.308632,109.104515 
	C120.280701,108.829788 120.560257,108.538246 121.154305,108.244980 
z"/>
<path fill="#D8F8D0" opacity="1.000000" stroke="none" 
	d="
M176.821838,220.712067 
	C176.808609,220.448730 177.106110,220.197266 177.699463,219.919998 
	C177.707733,220.170761 177.420166,220.447357 176.821838,220.712067 
z"/>
<path fill="#D8F8D0" opacity="1.000000" stroke="none" 
	d="
M119.202087,109.279846 
	C119.266190,109.569290 118.997200,109.869392 118.428497,110.241798 
	C118.375519,109.972900 118.622261,109.631699 119.202087,109.279846 
z"/>
<path fill="#D8F8D0" opacity="1.000000" stroke="none" 
	d="
M100.203781,115.326324 
	C100.254417,115.597382 99.979500,115.870514 99.423386,116.231384 
	C99.387543,115.988884 99.632889,115.658638 100.203781,115.326324 
z"/>
<path fill="#D8F8D0" opacity="1.000000" stroke="none" 
	d="
M113.100067,212.267212 
	C113.295296,212.172211 113.607895,212.315567 114.039848,212.695526 
	C113.845276,212.789948 113.531349,212.647751 113.100067,212.267212 
z"/>
<path fill="#D8F8D0" opacity="1.000000" stroke="none" 
	d="
M113.876144,113.148544 
	C113.940918,113.384781 113.741127,113.664635 113.276031,113.991470 
	C113.211006,113.756355 113.411285,113.474251 113.876144,113.148544 
z"/>
<path fill="#F2F8EF" opacity="1.000000" stroke="none" 
	d="
M192.822723,144.407913 
	C193.238739,144.700562 193.654739,144.993225 194.471100,145.587936 
	C195.209198,146.014084 195.546951,146.138184 196.090363,146.385315 
	C196.296005,146.508331 196.775284,146.509949 196.775284,146.509949 
	C196.864578,146.786438 197.040466,146.986984 197.638428,147.475906 
	C198.980804,148.233994 199.987717,148.627747 201.184036,149.246399 
	C201.904465,149.695862 202.435486,149.920425 203.090820,150.376282 
	C203.828339,150.527725 204.441513,150.447845 205.292419,150.436417 
	C205.977814,150.685654 206.425461,150.866440 206.850861,151.484802 
	C206.863663,159.242935 206.898712,166.563461 206.690491,174.113190 
	C201.832458,176.247223 197.061630,177.855225 192.661453,180.168304 
	C190.022507,181.555557 188.149979,181.999893 185.436691,180.328781 
	C179.662277,176.772339 173.620956,173.649292 167.625275,170.107269 
	C167.456924,169.549301 167.329788,169.242004 167.244690,168.706558 
	C167.309235,168.469116 167.110947,168.018692 167.174667,167.601776 
	C167.193512,165.783463 167.148636,164.382050 167.182343,162.732162 
	C167.196487,162.322357 167.132065,162.161011 167.178101,161.630829 
	C167.459686,159.167694 167.630829,157.073364 168.147202,154.904190 
	C174.391464,151.319519 180.290497,147.809723 186.317230,144.341095 
	C186.643051,144.304733 186.729340,144.159988 186.787048,143.959290 
	C186.870316,143.970535 186.931656,143.814072 187.210831,143.824112 
	C187.938950,143.538925 188.387894,143.243698 189.162720,143.025940 
	C190.131912,143.237534 190.775192,143.371674 191.418488,143.505814 
	C191.418488,143.505814 191.510422,143.502075 191.676147,143.739975 
	C192.168808,144.121231 192.495773,144.264572 192.822723,144.407913 
z"/>
<path fill="#F0F7EE" opacity="1.000000" stroke="none" 
	d="
M171.887390,110.376511 
	C171.887390,110.376511 172.084091,110.523148 172.419922,110.765999 
	C177.489624,113.690346 182.223511,116.371834 186.957382,119.053329 
	C186.957382,119.053329 187.002380,119.003769 187.090332,119.334366 
	C188.097534,121.094872 189.016785,122.524765 189.934235,123.922226 
	C189.932419,123.889786 189.868958,123.875793 189.520996,124.060432 
	C188.956467,128.852081 188.739899,133.459106 188.298889,138.255203 
	C187.667023,138.860031 187.259598,139.275757 186.506851,139.770493 
	C179.443695,143.933823 172.725861,148.018158 165.680817,152.107300 
	C164.918137,152.136917 164.482666,152.161728 163.782806,151.965698 
	C163.086731,151.600739 162.655075,151.456619 162.085297,151.025513 
	C159.997498,149.767487 158.047836,148.796432 155.978760,147.717468 
	C155.859344,147.609589 155.540359,147.566574 155.391785,147.143188 
	C155.045624,139.433029 154.977707,132.139420 154.592102,124.862617 
	C154.416824,121.554649 155.745316,119.689163 158.529068,118.145302 
	C161.677521,116.399185 164.520020,114.110100 167.589996,112.209702 
	C168.899094,111.399338 170.447647,110.975822 171.887390,110.376511 
z"/>
<path fill="#4BC32B" opacity="1.000000" stroke="none" 
	d="
M202.966492,150.144974 
	C202.435486,149.920425 201.904465,149.695862 201.217346,148.986786 
	C201.050705,148.328140 201.040146,148.154007 201.022339,147.725906 
	C201.012238,147.302612 201.009369,147.133270 201.006516,146.963928 
	C200.371048,145.509872 200.078171,143.717316 199.037277,142.663849 
	C195.616653,139.201904 196.037643,135.628311 198.113983,131.816910 
	C200.125519,128.124481 203.106125,129.063934 206.336273,129.803833 
	C209.566452,130.543732 212.945068,130.635757 216.636429,131.005814 
	C216.999252,133.804779 217.630203,136.834091 216.759125,139.341675 
	C216.095673,141.251602 213.525955,142.499344 211.261902,143.831863 
	C210.314819,143.651978 209.910126,143.681931 209.505447,143.711884 
	C210.004166,144.141235 210.502869,144.570618 211.001572,145.000000 
	C211.007172,146.066589 211.012772,147.133194 210.690033,148.645813 
	C209.904007,149.737061 209.446320,150.382263 208.636185,151.020523 
	C207.813522,151.024796 207.343323,151.036011 206.873123,151.047226 
	C206.425461,150.866440 205.977814,150.685654 205.264526,150.104355 
	C204.590027,149.305206 204.181137,148.906540 203.772247,148.507874 
	C203.503647,149.053574 203.235062,149.599274 202.966492,150.144974 
z"/>
<path fill="#6FC359" opacity="1.000000" stroke="none" 
	d="
M171.757324,110.026535 
	C170.447647,110.975822 168.899094,111.399338 167.589996,112.209702 
	C164.520020,114.110100 161.677521,116.399185 158.529068,118.145302 
	C155.745316,119.689163 154.416824,121.554649 154.592102,124.862617 
	C154.977707,132.139420 155.045624,139.433029 154.989777,147.241730 
	C151.984634,148.040985 149.232941,148.318283 146.663910,148.252258 
	C147.623459,146.033249 148.908722,144.200668 149.072205,142.272949 
	C149.420242,138.169113 148.676575,133.937027 149.301727,129.900192 
	C150.410995,122.737045 147.647842,118.550392 141.151718,115.748604 
	C139.067459,114.849663 137.854065,111.931625 136.242233,109.937347 
	C136.242233,109.937347 136.633301,109.859520 136.830414,109.826271 
	C139.163712,111.525352 141.140015,113.521637 143.470444,114.933258 
	C147.872864,117.599915 153.128510,119.462234 150.731262,126.422264 
	C151.890884,126.272057 152.458527,126.220772 152.457382,126.195526 
	C152.203568,120.649841 154.781418,117.273079 159.850327,114.984283 
	C162.129013,113.955368 163.364227,110.731178 165.616501,109.487602 
	C167.125336,108.654518 169.590179,109.552933 171.757324,110.026535 
z"/>
<path fill="#64C14B" opacity="1.000000" stroke="none" 
	d="
M186.950897,118.699142 
	C182.223511,116.371834 177.489624,113.690346 172.538269,110.733734 
	C178.597885,110.486649 183.234940,113.555786 186.950897,118.699142 
z"/>
<path fill="#79C565" opacity="1.000000" stroke="none" 
	d="
M188.523331,138.066116 
	C188.739899,133.459106 188.956467,128.852081 189.583374,124.496117 
	C190.035492,126.497444 190.077286,128.247726 190.119080,129.998001 
	C190.098419,130.749695 190.077759,131.501389 190.044785,133.026001 
	C190.046341,134.865234 190.060211,135.931549 190.074097,136.997879 
	C190.074081,136.997879 189.994446,137.475479 189.727463,137.733582 
	C189.149918,138.039490 188.837540,138.064301 188.523331,138.066116 
z"/>
<path fill="#4BC32B" opacity="1.000000" stroke="none" 
	d="
M190.492249,129.997742 
	C190.077286,128.247726 190.035492,126.497444 189.931335,124.311478 
	C189.868958,123.875793 189.932419,123.889786 190.218658,123.957001 
	C190.695786,124.020683 190.886673,124.017159 191.077576,124.013626 
	C192.715927,125.159462 194.354279,126.305290 197.192596,128.290359 
	C194.107971,129.122604 192.486694,129.560043 190.492249,129.997742 
z"/>
<path fill="#64C14B" opacity="1.000000" stroke="none" 
	d="
M188.298889,138.255203 
	C188.837540,138.064301 189.149918,138.039490 189.694504,137.973419 
	C190.528336,139.563705 191.128128,141.172241 191.573212,143.143311 
	C190.775192,143.371674 190.131912,143.237534 188.861557,143.009888 
	C187.830200,142.924866 187.425888,142.933350 187.006134,142.535767 
	C186.944504,141.316956 186.898331,140.504227 186.852173,139.691483 
	C187.259598,139.275757 187.667023,138.860031 188.298889,138.255203 
z"/>
<path fill="#4BC32B" opacity="1.000000" stroke="none" 
	d="
M190.444427,136.985626 
	C190.060211,135.931549 190.046341,134.865234 190.077301,133.401001 
	C191.050583,133.634033 191.979004,134.264954 192.907440,134.895874 
	C192.209885,135.588364 191.512329,136.280869 190.444427,136.985626 
z"/>
<path fill="#64C14B" opacity="1.000000" stroke="none" 
	d="
M191.069244,123.619705 
	C190.886673,124.017159 190.695786,124.020683 190.220459,123.989441 
	C189.016785,122.524765 188.097534,121.094872 187.064667,119.354874 
	C190.048676,118.740173 191.171188,120.377068 191.069244,123.619705 
z"/>
<path fill="#71C25B" opacity="1.000000" stroke="none" 
	d="
M133.243988,104.373558 
	C133.801636,103.761345 134.571320,103.384842 135.679733,103.016418 
	C136.009567,103.445763 136.000687,103.867012 135.971436,104.602417 
	C135.119385,104.814140 134.287720,104.711708 133.243988,104.373558 
z"/>
<path fill="#79C565" opacity="1.000000" stroke="none" 
	d="
M201.029602,147.979858 
	C201.040146,148.154007 201.050705,148.328140 201.027924,148.761887 
	C199.987717,148.627747 198.980804,148.233994 197.833771,147.536575 
	C198.197372,147.162262 198.701141,147.091599 199.708374,147.246033 
	C200.428879,147.729965 200.701462,147.899551 201.029602,147.979858 
z"/>
<path fill="#71C25B" opacity="1.000000" stroke="none" 
	d="
M195.943665,120.327644 
	C195.940155,119.925621 195.955933,119.754089 195.976593,119.324516 
	C196.431641,119.068039 196.881775,119.069611 197.668762,119.391350 
	C198.001968,120.118065 197.998306,120.524620 197.994644,120.931175 
	C197.551254,120.962654 197.107864,120.994125 196.330811,121.022530 
	C195.997147,121.019455 195.962952,120.558128 195.943665,120.327644 
z"/>
<path fill="#64BF4A" opacity="1.000000" stroke="none" 
	d="
M196.763947,146.210785 
	C196.775284,146.509949 196.296005,146.508331 196.116699,146.093292 
	C195.934555,145.483444 195.931717,145.288651 195.928879,145.093842 
	C196.203461,145.366440 196.478043,145.639023 196.763947,146.210785 
z"/>
<path fill="#64BF4A" opacity="1.000000" stroke="none" 
	d="
M201.022339,147.725906 
	C200.701462,147.899551 200.428879,147.729965 200.091049,147.259827 
	C200.142746,147.032333 200.315262,147.016129 200.747131,146.981934 
	C201.009369,147.133270 201.012238,147.302612 201.022339,147.725906 
z"/>
<path fill="#64C14B" opacity="1.000000" stroke="none" 
	d="
M192.761093,144.104767 
	C192.495773,144.264572 192.168808,144.121231 191.721985,143.736008 
	C191.967880,143.596634 192.333679,143.699127 192.761093,144.104767 
z"/>
<path fill="#6DC055" opacity="1.000000" stroke="none" 
	d="
M184.099060,111.149094 
	C184.180450,111.006012 184.348663,111.016937 184.767349,111.061203 
	C184.740524,111.164070 184.463211,111.233589 184.099060,111.149094 
z"/>
<path fill="#79C565" opacity="1.000000" stroke="none" 
	d="
M195.578049,145.134155 
	C195.931717,145.288651 195.934555,145.483444 195.911041,145.970261 
	C195.546951,146.138184 195.209198,146.014084 194.720276,145.660416 
	C194.788498,145.345383 195.007858,145.259933 195.578049,145.134155 
z"/>
<path fill="#4BC32C" opacity="1.000000" stroke="none" 
	d="
M208.988632,151.027466 
	C209.446320,150.382263 209.904007,149.737061 210.683228,149.045746 
	C211.013840,158.353119 210.880539,167.710617 211.143524,177.056946 
	C211.201065,179.101746 212.119827,181.748917 213.591568,183.013702 
	C218.681641,187.388077 218.571915,197.950806 213.152176,201.660004 
	C210.655151,203.368927 208.425888,205.469116 206.058609,207.756424 
	C205.574539,208.423553 205.107071,208.726135 204.152496,208.782410 
	C202.487061,207.625183 201.381271,206.594879 200.116425,205.826355 
	C196.699692,203.750366 194.026886,204.985260 193.005020,209.009842 
	C193.005020,209.009842 193.000000,208.999390 192.637756,208.993256 
	C191.215576,210.029099 190.155624,211.071060 189.095673,212.113007 
	C189.095657,212.113007 189.071915,212.112640 189.091171,212.121353 
	C187.973251,212.342194 186.836060,212.554321 185.168335,212.654602 
	C183.749893,211.933701 182.862000,211.324615 182.062378,210.528625 
	C182.347290,210.136246 182.582458,209.994858 183.182846,209.947205 
	C183.998230,209.603973 184.486877,209.231094 185.183136,208.745834 
	C185.625229,208.422485 185.871567,208.226425 186.451752,208.025864 
	C187.184372,207.345871 187.595001,206.685303 188.130707,205.806488 
	C188.527481,205.397980 188.799149,205.207718 189.426453,204.968857 
	C190.129883,204.255554 190.833939,203.553726 190.769180,202.931992 
	C190.246323,197.913422 189.547562,192.913513 188.968781,187.900269 
	C188.675858,185.363052 189.415344,183.756454 192.167343,182.614944 
	C197.330200,180.473434 202.217651,177.667938 207.565536,174.981415 
	C208.273041,173.790955 208.934097,172.761612 208.947784,171.723740 
	C209.038757,164.826004 208.991165,157.926422 208.988632,151.027466 
z"/>
<path fill="#4BC32C" opacity="1.000000" stroke="none" 
	d="
M211.014648,144.767303 
	C210.502869,144.570618 210.004166,144.141235 209.505447,143.711884 
	C209.910126,143.681931 210.314819,143.651978 210.883820,143.845490 
	C211.048141,144.068939 211.027725,144.534607 211.014648,144.767303 
z"/>
<path fill="#6DC055" opacity="1.000000" stroke="none" 
	d="
M198.344940,120.874176 
	C197.998306,120.524620 198.001968,120.118065 198.006012,119.406593 
	C198.376160,118.927032 198.745911,118.752388 199.420731,118.537552 
	C199.382263,119.270630 199.038757,120.043907 198.344940,120.874176 
z"/>
<path fill="#4BC32C" opacity="1.000000" stroke="none" 
	d="
M118.264061,214.906967 
	C118.264061,214.906967 117.967682,214.713928 117.874573,214.565216 
	C116.505013,213.247574 115.228554,212.078674 113.607384,210.822052 
	C111.748970,209.476715 110.235275,208.219086 108.349747,206.992233 
	C107.977928,207.022995 107.502937,207.101822 107.103180,206.868042 
	C106.151047,207.117004 105.598663,207.599731 105.046280,208.082458 
	C104.571022,208.388885 104.095764,208.695297 103.187332,208.810242 
	C102.151993,208.773712 101.549828,208.928680 100.947655,209.083649 
	C100.415169,208.890823 99.882675,208.698013 99.118950,207.931610 
	C97.870949,206.968353 96.854195,206.578690 95.837440,206.189026 
	C95.837440,206.189026 95.933449,206.029678 95.786194,205.821365 
	C95.056000,205.439682 94.473053,205.266312 93.890099,205.092957 
	C93.890099,205.092957 93.966255,204.994904 93.922920,204.675476 
	C92.218063,203.607346 90.556541,202.858673 88.895012,202.110001 
	C88.895012,202.110001 88.886765,202.092422 88.879105,202.110321 
	C88.587837,197.466049 88.122116,192.803375 88.134819,188.142014 
	C88.138481,186.795059 89.613632,185.495392 90.242287,184.096786 
	C91.203743,181.957779 92.599533,179.791946 92.753181,177.564529 
	C92.977295,174.315628 92.057083,171.005585 91.999191,167.715042 
	C91.921959,163.325882 92.203934,158.930405 92.884521,154.160950 
	C93.983131,153.534790 94.528847,153.285309 95.065109,153.395996 
	C95.365242,154.839264 95.674835,155.922363 96.018188,157.417572 
	C95.911705,159.193832 95.771469,160.557968 95.420319,161.941772 
	C95.015533,162.141846 94.821671,162.322250 94.627815,162.502670 
	C94.962212,162.694321 95.296608,162.885971 95.729019,163.396759 
	C95.814072,164.158417 95.801086,164.600952 95.575546,165.185654 
	C95.542816,165.877762 95.722641,166.427689 95.995819,167.373657 
	C96.231331,169.631729 96.373497,171.493729 96.356712,173.797745 
	C95.742851,176.690491 96.469780,177.977325 99.253311,178.014008 
	C101.333893,178.041412 103.545967,178.302216 105.453239,179.070450 
	C109.037918,180.514328 112.444595,182.400162 115.611740,183.948914 
	C115.611740,185.125687 115.711838,186.685684 115.592125,188.228638 
	C115.287491,192.154831 115.946526,196.647842 114.223129,199.833908 
	C112.490189,203.037613 112.404663,205.094772 114.762054,207.097626 
	C119.533073,211.151123 124.323944,215.353790 131.215973,216.241302 
	C133.278732,216.666504 135.136139,216.828445 136.995193,217.361664 
	C136.639404,218.839737 136.281982,219.946548 135.924561,221.053345 
	C131.757538,219.739471 127.590530,218.425598 123.018539,217.198364 
	C122.613564,217.284988 122.286438,217.228561 122.091621,216.791168 
	C120.685890,215.871506 119.474976,215.389236 118.264061,214.906967 
z"/>
<path fill="#4BC32B" opacity="1.000000" stroke="none" 
	d="
M95.074570,153.035828 
	C94.528847,153.285309 93.983131,153.534790 93.144501,153.866440 
	C92.778259,151.499588 92.704926,149.050568 92.378098,146.302460 
	C91.823997,145.547974 91.523384,145.092529 91.062805,144.412567 
	C87.470078,139.055939 88.592941,133.215240 88.374580,127.594040 
	C88.346146,126.862129 88.620399,125.785179 89.141975,125.416962 
	C94.092857,121.921814 98.614433,117.309151 105.778725,118.294174 
	C106.527695,118.200623 107.049690,118.353134 107.858971,118.804413 
	C108.317749,118.943291 108.489235,118.783386 108.660736,118.623489 
	C108.660736,118.623497 108.698647,118.659958 108.994080,118.677505 
	C109.517868,118.434967 109.746223,118.174873 109.974579,117.914772 
	C110.263298,117.793671 110.503075,117.609009 110.811996,117.164627 
	C111.363731,116.963707 111.797371,116.958939 112.553436,116.931778 
	C113.473427,117.125244 114.070984,117.341103 114.696701,118.106842 
	C113.909012,119.669754 113.093147,120.682793 112.433617,121.501717 
	C116.298416,126.953415 115.817360,133.040649 115.820801,139.137543 
	C114.722870,140.253708 113.894882,141.198456 112.903137,142.447617 
	C108.490326,144.539078 104.361130,146.773376 99.949974,147.955566 
	C97.023155,148.739929 95.886002,149.651596 96.673645,152.742218 
	C96.657188,152.936234 96.468620,153.278030 96.124939,153.189667 
	C95.545692,153.079483 95.310127,153.057663 95.074570,153.035828 
z"/>
<path fill="#F2F8F0" opacity="1.000000" stroke="none" 
	d="
M135.864120,109.879623 
	C137.854065,111.931625 139.067459,114.849663 141.151718,115.748604 
	C147.647842,118.550392 150.410995,122.737045 149.301727,129.900192 
	C148.676575,133.937027 149.420242,138.169113 149.072205,142.272949 
	C148.908722,144.200668 147.623459,146.033249 146.411743,148.308624 
	C145.681320,148.889694 145.385727,149.071091 144.776215,149.212997 
	C143.844360,149.689331 143.226440,150.205139 142.444885,150.771149 
	C142.281265,150.821365 142.033325,151.057358 141.679657,151.037277 
	C139.758987,150.966110 137.912598,151.436798 136.673538,150.773315 
	C131.405899,147.952682 126.148499,145.039307 121.258263,141.628067 
	C119.579788,140.457230 118.341255,137.830338 118.024101,135.701431 
	C117.316551,130.952087 117.315880,126.097412 117.027191,121.285652 
	C116.610939,121.239456 116.194695,121.193253 115.778442,121.147057 
	C117.975159,119.184242 120.171875,117.221436 122.368591,115.258621 
	C122.368591,115.258621 122.716362,115.163506 123.163208,115.049179 
	C124.237175,114.414299 124.864288,113.893738 125.491409,113.373177 
	C125.829987,113.264740 126.168564,113.156311 127.080765,112.908417 
	C129.755981,111.778809 131.857574,110.788651 133.959167,109.798485 
	C134.468109,109.806282 134.977066,109.814087 135.864120,109.879623 
z"/>
<path fill="#79C665" opacity="1.000000" stroke="none" 
	d="
M121.994438,115.197296 
	C120.171875,117.221436 117.975159,119.184242 115.778442,121.147057 
	C116.194695,121.193253 116.610939,121.239456 117.027191,121.285652 
	C117.315880,126.097412 117.316551,130.952087 118.024101,135.701431 
	C118.341255,137.830338 119.579788,140.457230 121.258263,141.628067 
	C126.148499,145.039307 131.405899,147.952682 136.673538,150.773315 
	C137.912598,151.436798 139.758987,150.966110 141.622437,151.382935 
	C140.158264,153.428741 138.397644,155.108780 136.488800,156.519760 
	C130.628784,152.710007 124.869637,149.242645 119.226639,145.595535 
	C116.681503,143.950577 114.724472,144.286407 111.987495,145.616501 
	C107.910332,147.597900 104.635071,152.261398 99.004951,150.312805 
	C98.546173,150.154022 97.476112,151.761459 96.690094,152.548187 
	C95.886002,149.651596 97.023155,148.739929 99.949974,147.955566 
	C104.361130,146.773376 108.490326,144.539078 113.272545,142.421158 
	C115.880478,142.009323 117.997841,141.959488 116.090736,138.966141 
	C115.817360,133.040649 116.298416,126.953415 112.433617,121.501717 
	C113.093147,120.682793 113.909012,119.669754 114.880569,118.369743 
	C117.230934,117.100494 119.425606,116.118225 121.994438,115.197296 
z"/>
<path fill="#6FC359" opacity="1.000000" stroke="none" 
	d="
M133.856445,109.605347 
	C131.857574,110.788651 129.755981,111.778809 127.298477,112.752678 
	C128.071487,111.529907 129.200394,110.323425 130.993576,109.079620 
	C132.103195,109.025520 132.548538,109.008736 132.993896,108.991943 
	C133.283829,109.065773 133.537109,109.205864 133.856445,109.605347 
z"/>
<path fill="#71C25B" opacity="1.000000" stroke="none" 
	d="
M126.937500,106.759155 
	C127.774986,106.048470 128.996140,105.433968 130.565063,104.808182 
	C129.715622,105.483047 128.518402,106.169197 126.937500,106.759155 
z"/>
<path fill="#79C665" opacity="1.000000" stroke="none" 
	d="
M125.143631,113.287712 
	C124.864288,113.893738 124.237175,114.414299 123.292793,114.923851 
	C123.582306,114.342644 124.189087,113.772446 125.143631,113.287712 
z"/>
<path fill="#4BC32C" opacity="1.000000" stroke="none" 
	d="
M132.954391,108.696091 
	C132.548538,109.008736 132.103195,109.025520 131.323212,109.040588 
	C131.219498,108.519394 131.450409,107.999901 131.681305,107.480408 
	C132.092499,107.787018 132.503693,108.093636 132.954391,108.696091 
z"/>
<path fill="#71C25B" opacity="1.000000" stroke="none" 
	d="
M116.181847,112.908340 
	C116.281883,112.495895 116.726105,112.088455 117.469025,111.598137 
	C117.353828,111.981285 116.939926,112.447319 116.181847,112.908340 
z"/>
<path fill="#6EBF56" opacity="1.000000" stroke="none" 
	d="
M165.161072,226.003983 
	C165.599091,226.003403 166.037109,226.002808 166.804642,226.002609 
	C167.712265,229.545013 166.342346,231.928238 162.472504,233.061478 
	C162.026459,233.033264 161.866623,232.889374 161.965469,232.556152 
	C163.096573,230.149963 164.128830,228.076981 165.161072,226.003983 
z"/>
<path fill="#6EBF56" opacity="1.000000" stroke="none" 
	d="
M162.104797,233.106934 
	C162.071014,233.496399 161.890656,233.766663 161.424133,234.104202 
	C161.206223,234.217010 161.040237,234.032227 161.107605,233.762451 
	C161.382172,233.264816 161.612717,233.063721 161.866623,232.889374 
	C161.866623,232.889374 162.026459,233.033264 162.104797,233.106934 
z"/>
<path fill="#4BC32B" opacity="1.000000" stroke="none" 
	d="
M161.965469,232.556152 
	C161.612717,233.063721 161.382172,233.264816 161.026978,233.667999 
	C158.657104,234.670914 156.467514,235.605484 154.202240,236.289505 
	C152.624207,236.766022 150.942398,236.898834 148.927887,237.265167 
	C148.548813,237.345139 148.243332,237.286133 148.115051,237.198944 
	C145.885056,235.744431 143.783325,234.377090 141.303253,233.041046 
	C140.924896,233.072342 140.959824,233.053146 140.915039,232.697937 
	C139.899765,230.143280 138.989838,227.914093 137.931824,225.757584 
	C137.443680,224.762619 136.665985,223.909683 136.019592,222.992340 
	C136.019592,222.992340 136.003784,223.000977 136.005783,222.991135 
	C135.999542,222.552063 135.991318,222.122849 135.953827,221.373474 
	C136.281982,219.946548 136.639404,218.839737 136.997589,217.366608 
	C136.998352,217.000275 136.988907,216.994232 137.339447,216.935760 
	C138.105240,215.873047 138.520508,214.868820 139.155228,213.602356 
	C140.473343,212.125961 141.572037,210.911819 142.690781,209.700607 
	C142.710831,209.703537 142.747543,209.688034 143.111374,209.783600 
	C144.845169,208.875992 146.215118,207.872818 147.781464,206.673279 
	C148.138824,206.385483 148.299820,206.294052 148.679840,206.205292 
	C148.898849,206.207977 149.320984,206.083099 149.689163,206.059967 
	C155.299591,209.216263 160.637054,212.253143 165.730408,215.655441 
	C167.424484,216.787064 167.138153,217.215698 169.332169,216.236221 
	C170.079727,216.030457 170.522659,215.968414 171.142975,216.172577 
	C172.262115,216.021057 173.203857,215.603333 174.438080,215.101990 
	C175.119537,214.601471 175.508499,214.184570 176.156601,213.552490 
	C178.268524,212.463394 180.121323,211.589462 181.974121,210.715530 
	C182.862000,211.324615 183.749893,211.933701 184.848389,212.810516 
	C185.025879,213.472275 184.992767,213.866257 184.900635,214.549759 
	C179.165939,216.977951 173.423706,218.963531 167.867676,221.377594 
	C166.680252,221.893509 166.168442,223.964371 165.253235,225.661438 
	C164.128830,228.076981 163.096573,230.149963 161.965469,232.556152 
z"/>
<path fill="#6DC055" opacity="1.000000" stroke="none" 
	d="
M193.339111,208.904678 
	C194.026886,204.985260 196.699692,203.750366 200.116425,205.826355 
	C201.381271,206.594879 202.487061,207.625183 203.871002,208.826385 
	C202.628616,208.836105 201.183456,208.345367 199.731934,208.325775 
	C197.714859,208.298569 195.693008,208.624664 193.339111,208.904678 
z"/>
<path fill="#6DC055" opacity="1.000000" stroke="none" 
	d="
M189.414795,212.075958 
	C190.155624,211.071060 191.215576,210.029099 192.643036,208.996063 
	C193.010529,209.004990 193.018295,209.497299 193.001923,209.742889 
	C191.901688,210.671936 190.817810,211.355423 189.414795,212.075958 
z"/>
<path fill="#6EBF56" opacity="1.000000" stroke="none" 
	d="
M95.947540,206.430634 
	C96.854195,206.578690 97.870949,206.968353 98.928719,207.718536 
	C98.561203,208.028976 98.152679,207.978882 97.437790,207.884109 
	C96.773499,207.450363 96.415573,207.061295 95.947540,206.430634 
z"/>
<path fill="#6EBF56" opacity="1.000000" stroke="none" 
	d="
M105.338974,208.077881 
	C105.598663,207.599731 106.151047,207.117004 106.862640,206.877945 
	C106.558456,207.438828 106.095062,207.756058 105.338974,208.077881 
z"/>
<path fill="#6EBF56" opacity="1.000000" stroke="none" 
	d="
M101.094376,209.310333 
	C101.549828,208.928680 102.151993,208.773712 102.902969,208.859192 
	C102.448227,209.245422 101.844658,209.391220 101.094376,209.310333 
z"/>
<path fill="#6EBF56" opacity="1.000000" stroke="none" 
	d="
M136.040939,223.414093 
	C136.665985,223.909683 137.443680,224.762619 137.931824,225.757584 
	C138.989838,227.914093 139.899765,230.143280 140.908356,232.709381 
	C139.923279,232.691376 138.900070,232.306747 137.556305,231.839279 
	C136.844589,229.116241 136.453430,226.476044 136.040939,223.414093 
z"/>
<path fill="#6EBF56" opacity="1.000000" stroke="none" 
	d="
M118.241989,215.109970 
	C119.474976,215.389236 120.685890,215.871506 121.952560,216.700562 
	C120.977211,216.671570 119.946114,216.295807 118.599670,215.818161 
	C118.284317,215.716278 118.219917,215.312973 118.241989,215.109970 
z"/>
<path fill="#6EBF56" opacity="1.000000" stroke="none" 
	d="
M108.512497,118.587372 
	C108.489235,118.783386 108.317749,118.943291 108.117081,118.891914 
	C108.087906,118.680641 108.364265,118.551247 108.512497,118.587372 
z"/>
<path fill="#71C25B" opacity="1.000000" stroke="none" 
	d="
M109.713699,117.918381 
	C109.746223,118.174873 109.517868,118.434967 109.019119,118.669472 
	C108.983429,118.403259 109.218124,118.162628 109.713699,117.918381 
z"/>
<path fill="#6EBF56" opacity="1.000000" stroke="none" 
	d="
M89.054314,202.401031 
	C90.556541,202.858673 92.218063,203.607346 93.897736,204.732117 
	C92.348465,204.302811 90.781036,203.497437 89.054314,202.401031 
z"/>
<path fill="#6EBF56" opacity="1.000000" stroke="none" 
	d="
M93.912262,205.312729 
	C94.473053,205.266312 95.056000,205.439682 95.757996,205.910004 
	C95.468430,206.152466 95.059814,206.097977 94.343445,206.003021 
	C94.035690,205.962555 93.934425,205.532516 93.912262,205.312729 
z"/>
<path fill="#4BC32C" opacity="1.000000" stroke="none" 
	d="
M136.637024,156.788834 
	C138.397644,155.108780 140.158264,153.428741 141.976105,151.403015 
	C142.033325,151.057358 142.281265,150.821365 142.780243,150.836578 
	C143.882874,150.318680 144.486496,149.785583 145.090134,149.252472 
	C145.385727,149.071091 145.681320,148.889694 146.229095,148.651947 
	C149.232941,148.318283 151.984634,148.040985 155.138336,147.665131 
	C155.540359,147.566574 155.859344,147.609589 155.967529,148.075226 
	C158.047989,150.003326 160.020294,151.465790 162.230591,153.039978 
	C162.994812,152.829987 163.521011,152.508270 164.047211,152.186554 
	C164.482666,152.161728 164.918137,152.136917 165.666992,152.438080 
	C166.587585,153.502396 167.194778,154.240723 167.801956,154.979050 
	C167.630829,157.073364 167.459686,159.167694 166.986603,161.705154 
	C166.824341,162.425751 166.964050,162.703186 167.103760,162.980637 
	C167.148636,164.382050 167.193512,165.783463 166.977325,167.669373 
	C166.870895,168.417252 167.025513,168.680618 167.180145,168.944000 
	C167.329788,169.242004 167.456924,169.549301 167.380707,170.439301 
	C166.124207,171.666031 165.048553,172.319397 163.559204,172.981323 
	C157.860443,173.129318 157.860443,173.129318 159.257080,176.428528 
	C158.539337,176.881195 158.012405,177.114761 157.171158,177.311966 
	C156.587830,177.573242 156.318832,177.870865 155.881470,178.333099 
	C155.324875,178.760620 154.936661,179.023514 154.091278,179.206055 
	C152.409378,179.095428 151.184631,179.065170 149.786896,178.744446 
	C146.016373,176.595261 142.344116,174.862610 138.866211,172.801926 
	C137.805267,172.173325 137.279068,170.642181 136.515167,169.126953 
	C136.569748,166.589844 136.617157,164.450180 136.745850,161.896515 
	C136.752075,161.211487 136.677002,160.940430 136.564804,160.283051 
	C136.564133,158.860748 136.600586,157.824799 136.637024,156.788834 
z"/>
<path fill="#73C35E" opacity="1.000000" stroke="none" 
	d="
M163.972916,172.972748 
	C165.048553,172.319397 166.124207,171.666031 167.444427,170.680664 
	C173.620956,173.649292 179.662277,176.772339 185.436691,180.328781 
	C188.149979,181.999893 190.022507,181.555557 192.661453,180.168304 
	C197.061630,177.855225 201.832458,176.247223 206.761230,174.427063 
	C207.123383,174.720703 207.171524,174.929657 207.219650,175.138596 
	C202.217651,177.667938 197.330200,180.473434 192.167343,182.614944 
	C189.415344,183.756454 188.675858,185.363052 188.968781,187.900269 
	C189.547562,192.913513 190.246323,197.913422 190.769180,202.931992 
	C190.833939,203.553726 190.129883,204.255554 189.432220,204.564453 
	C188.494537,199.552399 187.959763,194.888489 187.289215,190.244186 
	C187.064499,188.687653 186.975479,186.344803 186.004074,185.785080 
	C178.782440,181.623840 171.354294,177.821030 163.983170,173.672546 
	C163.975372,173.439362 163.972916,172.972748 163.972916,172.972748 
z"/>
<path fill="#73C35E" opacity="1.000000" stroke="none" 
	d="
M168.147202,154.904190 
	C167.194778,154.240723 166.587585,153.502396 165.994217,152.433273 
	C172.725861,148.018158 179.443695,143.933823 186.506851,139.770493 
	C186.898331,140.504227 186.944504,141.316956 186.983780,142.754166 
	C186.976883,143.378632 186.931656,143.814072 186.931656,143.814072 
	C186.931656,143.814072 186.870316,143.970535 186.698486,144.014801 
	C186.526657,144.059052 186.189514,144.299911 186.189514,144.299911 
	C180.290497,147.809723 174.391464,151.319519 168.147202,154.904190 
z"/>
<path fill="#64BF4A" opacity="1.000000" stroke="none" 
	d="
M207.565536,174.981415 
	C207.171524,174.929657 207.123383,174.720703 207.004486,174.197876 
	C206.898712,166.563461 206.863663,159.242935 206.850861,151.484802 
	C207.343323,151.036011 207.813522,151.024796 208.636169,151.020508 
	C208.991165,157.926422 209.038757,164.826004 208.947784,171.723740 
	C208.934097,172.761612 208.273041,173.790955 207.565536,174.981415 
z"/>
<path fill="#64BF4A" opacity="1.000000" stroke="none" 
	d="
M203.090820,150.376282 
	C203.235062,149.599274 203.503647,149.053574 203.772247,148.507874 
	C204.181137,148.906540 204.590027,149.305206 205.026810,150.035919 
	C204.441513,150.447845 203.828339,150.527725 203.090820,150.376282 
z"/>
<path fill="#79C565" opacity="1.000000" stroke="none" 
	d="
M187.210831,143.824112 
	C186.931656,143.814072 186.976883,143.378632 186.999237,143.160233 
	C187.425888,142.933350 187.830200,142.924866 188.535675,142.932419 
	C188.387894,143.243698 187.938950,143.538925 187.210831,143.824112 
z"/>
<path fill="#79C565" opacity="1.000000" stroke="none" 
	d="
M186.317230,144.341095 
	C186.189514,144.299911 186.526657,144.059052 186.615219,144.003555 
	C186.729340,144.159988 186.643051,144.304733 186.317230,144.341095 
z"/>
<path fill="#73C35E" opacity="1.000000" stroke="none" 
	d="
M167.182327,162.732162 
	C166.964050,162.703186 166.824341,162.425751 166.876144,162.073975 
	C167.132065,162.161011 167.196487,162.322357 167.182327,162.732162 
z"/>
<path fill="#73C35E" opacity="1.000000" stroke="none" 
	d="
M167.244690,168.706558 
	C167.025513,168.680618 166.870895,168.417252 166.913605,168.086273 
	C167.110947,168.018692 167.309235,168.469116 167.244690,168.706558 
z"/>
<path fill="#79C565" opacity="1.000000" stroke="none" 
	d="
M161.992584,152.928253 
	C160.020294,151.465790 158.047989,150.003326 156.086929,148.183105 
	C158.047836,148.796432 159.997498,149.767487 162.016861,151.429260 
	C162.055222,152.389389 162.023911,152.658829 161.992584,152.928253 
z"/>
<path fill="#73C35E" opacity="1.000000" stroke="none" 
	d="
M162.230591,153.039978 
	C162.023911,152.658829 162.055222,152.389389 162.154968,151.716232 
	C162.655075,151.456619 163.086731,151.600739 163.782806,151.965698 
	C163.521011,152.508270 162.994812,152.829987 162.230591,153.039978 
z"/>
<path fill="#F0F7EE" opacity="1.000000" stroke="none" 
	d="
M163.990967,173.905716 
	C171.354294,177.821030 178.782440,181.623840 186.004074,185.785080 
	C186.975479,186.344803 187.064499,188.687653 187.289215,190.244186 
	C187.959763,194.888489 188.494537,199.552399 189.076569,204.613052 
	C188.799149,205.207718 188.527481,205.397980 187.818665,205.823853 
	C186.964294,206.721420 186.547028,207.383362 186.129761,208.045288 
	C185.871567,208.226425 185.625229,208.422485 184.858490,208.702560 
	C183.836197,209.153641 183.346161,209.535614 182.856125,209.917572 
	C182.582458,209.994858 182.347290,210.136246 182.062378,210.528625 
	C180.121323,211.589462 178.268524,212.463394 175.821930,213.548004 
	C174.458328,214.158447 173.688522,214.558212 172.629761,214.975449 
	C171.882416,215.297409 171.423996,215.601883 170.965576,215.906372 
	C170.522659,215.968414 170.079727,216.030457 169.054413,216.000931 
	C165.091721,213.175293 161.582779,210.581558 158.384308,207.649170 
	C156.733627,206.135834 154.566422,204.072281 154.474365,202.168289 
	C154.106491,194.559982 154.461136,186.916733 154.548431,179.286423 
	C154.936661,179.023514 155.324875,178.760620 156.177124,178.316528 
	C156.922607,177.873016 157.204056,177.610672 157.485489,177.348328 
	C158.012405,177.114761 158.539337,176.881195 159.506683,176.451050 
	C160.346039,175.970688 160.744949,175.686890 161.449219,175.290436 
	C162.046265,174.864487 162.337952,174.551224 162.872528,174.285629 
	C163.458481,174.295654 163.750336,174.153122 163.990967,173.905716 
z"/>
<path fill="#73C35E" opacity="1.000000" stroke="none" 
	d="
M186.451752,208.025879 
	C186.547028,207.383362 186.964294,206.721420 187.693588,206.042114 
	C187.595001,206.685303 187.184372,207.345871 186.451752,208.025879 
z"/>
<path fill="#73C35E" opacity="1.000000" stroke="none" 
	d="
M183.182846,209.947220 
	C183.346161,209.535614 183.836197,209.153641 184.650879,208.814941 
	C184.486877,209.231094 183.998230,209.603973 183.182846,209.947220 
z"/>
<path fill="#F1F8EF" opacity="1.000000" stroke="none" 
	d="
M136.488800,156.519760 
	C136.600586,157.824799 136.564133,158.860748 136.418365,160.467407 
	C136.427536,161.462234 136.546051,161.886368 136.664551,162.310501 
	C136.617157,164.450180 136.569748,166.589844 136.206665,169.265076 
	C132.430038,172.097092 128.969070,174.393539 125.173294,176.769318 
	C123.659294,177.463043 122.342903,177.906250 121.325188,178.722046 
	C117.388100,181.877991 113.857582,181.473557 109.678535,178.711700 
	C106.631615,176.698013 103.604256,173.044632 98.911026,175.411179 
	C98.549866,175.593277 97.334160,174.080658 96.515656,173.355743 
	C96.373497,171.493729 96.231331,169.631729 96.188988,167.224915 
	C96.121902,166.134583 95.955002,165.589020 95.788101,165.043472 
	C95.801086,164.600952 95.814072,164.158417 95.839073,163.107788 
	C95.777809,162.307159 95.704521,162.114624 95.631241,161.922104 
	C95.771469,160.557968 95.911705,159.193832 96.172714,157.065277 
	C96.351868,155.293259 96.410240,154.285645 96.468620,153.278030 
	C96.468620,153.278030 96.657188,152.936234 96.673645,152.742218 
	C97.476112,151.761459 98.546173,150.154022 99.004951,150.312805 
	C104.635071,152.261398 107.910332,147.597900 111.987495,145.616501 
	C114.724472,144.286407 116.681503,143.950577 119.226639,145.595535 
	C124.869637,149.242645 130.628784,152.710007 136.488800,156.519760 
z"/>
<path fill="#6CC156" opacity="1.000000" stroke="none" 
	d="
M96.356712,173.797745 
	C97.334160,174.080658 98.549866,175.593277 98.911026,175.411179 
	C103.604256,173.044632 106.631615,176.698013 109.678535,178.711700 
	C113.857582,181.473557 117.388100,181.877991 121.325188,178.722046 
	C122.342903,177.906250 123.659294,177.463043 125.551712,176.876358 
	C126.856575,177.637375 127.448204,178.370697 127.770813,179.328995 
	C120.557632,182.232361 116.385872,186.424347 117.629158,194.738602 
	C118.085060,197.787338 116.568787,201.130981 115.685043,205.730194 
	C120.058662,208.360367 125.537666,211.655289 131.014069,215.207169 
	C131.011185,215.635452 131.010910,215.806763 131.010651,215.978058 
	C124.323944,215.353790 119.533073,211.151123 114.762054,207.097626 
	C112.404663,205.094772 112.490189,203.037613 114.223129,199.833908 
	C115.946526,196.647842 115.287491,192.154831 115.592125,188.228638 
	C115.711838,186.685684 115.611740,185.125687 115.611740,183.948914 
	C112.444595,182.400162 109.037918,180.514328 105.453239,179.070450 
	C103.545967,178.302216 101.333893,178.041412 99.253311,178.014008 
	C96.469780,177.977325 95.742851,176.690491 96.356712,173.797745 
z"/>
<path fill="#77C561" opacity="1.000000" stroke="none" 
	d="
M131.215973,216.241302 
	C131.010910,215.806763 131.011185,215.635452 131.382095,215.215179 
	C133.714737,215.500168 135.378586,216.620667 136.740219,213.411926 
	C137.487076,211.651917 140.615936,210.902679 142.670731,209.697678 
	C141.572037,210.911819 140.473343,212.125961 138.879211,213.774628 
	C137.918823,215.137497 137.453857,216.065857 136.988892,216.994232 
	C136.988907,216.994232 136.998352,217.000275 136.995956,216.995331 
	C135.136139,216.828445 133.278732,216.666504 131.215973,216.241302 
z"/>
<path fill="#79C665" opacity="1.000000" stroke="none" 
	d="
M95.575546,165.185654 
	C95.955002,165.589020 96.121902,166.134583 96.095634,166.828873 
	C95.722641,166.427689 95.542816,165.877762 95.575546,165.185654 
z"/>
<path fill="#6CC156" opacity="1.000000" stroke="none" 
	d="
M96.124939,153.189667 
	C96.410240,154.285645 96.351868,155.293259 96.138962,156.653168 
	C95.674835,155.922363 95.365242,154.839264 95.065109,153.395996 
	C95.310127,153.057663 95.545692,153.079483 96.124939,153.189667 
z"/>
<path fill="#6CC156" opacity="1.000000" stroke="none" 
	d="
M95.420319,161.941772 
	C95.704521,162.114624 95.777809,162.307159 95.741043,162.788666 
	C95.296608,162.885971 94.962212,162.694321 94.627815,162.502670 
	C94.821671,162.322250 95.015533,162.141846 95.420319,161.941772 
z"/>
<path fill="#54BB3A" opacity="1.000000" stroke="none" 
	d="
M115.820801,139.137543 
	C117.997841,141.959488 115.880478,142.009323 113.436302,142.116760 
	C113.894882,141.198456 114.722870,140.253708 115.820801,139.137543 
z"/>
<path fill="#79C665" opacity="1.000000" stroke="none" 
	d="
M144.776215,149.213013 
	C144.486496,149.785583 143.882874,150.318680 142.943878,150.786362 
	C143.226440,150.205139 143.844360,149.689331 144.776215,149.213013 
z"/>
<path fill="#F2F8F0" opacity="1.000000" stroke="none" 
	d="
M142.690781,209.700607 
	C140.615936,210.902679 137.487076,211.651917 136.740219,213.411926 
	C135.378586,216.620667 133.714737,215.500168 131.384705,214.958221 
	C125.537666,211.655289 120.058662,208.360367 115.685043,205.730194 
	C116.568787,201.130981 118.085060,197.787338 117.629158,194.738602 
	C116.385872,186.424347 120.557632,182.232361 128.129623,179.275528 
	C135.651367,173.455185 142.319031,174.077026 148.806671,179.727539 
	C148.928116,179.833328 149.101578,179.879395 149.243042,180.424469 
	C149.201126,189.031311 149.166962,197.166977 148.913361,205.354370 
	C148.393082,205.606171 148.315369,205.871674 148.460831,206.202621 
	C148.299820,206.294052 148.138824,206.385483 147.458130,206.674957 
	C145.541473,207.811356 144.144516,208.749695 142.747543,209.688034 
	C142.747543,209.688034 142.710831,209.703537 142.690781,209.700607 
z"/>
<path fill="#65BF4C" opacity="1.000000" stroke="none" 
	d="
M149.132782,205.302643 
	C149.166962,197.166977 149.201126,189.031311 149.417664,180.323105 
	C149.781906,179.543167 149.901871,179.304626 149.959869,179.034912 
	C151.184631,179.065170 152.409378,179.095428 154.091278,179.206055 
	C154.461136,186.916733 154.106491,194.559982 154.474365,202.168289 
	C154.566422,204.072281 156.733627,206.135834 158.384308,207.649170 
	C161.582779,210.581558 165.091721,213.175293 168.749771,216.144653 
	C167.138153,217.215698 167.424484,216.787064 165.730408,215.655441 
	C160.637054,212.253143 155.299591,209.216263 149.632065,205.866730 
	C149.206787,205.696609 149.132782,205.302643 149.132782,205.302643 
z"/>
<path fill="#77C561" opacity="1.000000" stroke="none" 
	d="
M143.111374,209.783600 
	C144.144516,208.749695 145.541473,207.811356 147.261749,206.871338 
	C146.215118,207.872818 144.845169,208.875992 143.111374,209.783600 
z"/>
<path fill="#65BF4C" opacity="1.000000" stroke="none" 
	d="
M171.142975,216.172577 
	C171.423996,215.601883 171.882416,215.297409 172.937256,215.028595 
	C173.737656,215.104736 173.941635,215.145172 174.145599,215.185608 
	C173.203857,215.603333 172.262115,216.021057 171.142975,216.172577 
z"/>
<path fill="#4BC32C" opacity="1.000000" stroke="none" 
	d="
M137.339432,216.935760 
	C137.453857,216.065857 137.918823,215.137497 138.659790,214.036865 
	C138.520508,214.868820 138.105240,215.873047 137.339432,216.935760 
z"/>
<path fill="#73C35E" opacity="1.000000" stroke="none" 
	d="
M174.438080,215.101990 
	C173.941635,215.145172 173.737656,215.104736 173.226196,215.011139 
	C173.688522,214.558212 174.458328,214.158447 175.562805,213.763184 
	C175.508499,214.184570 175.119537,214.601471 174.438080,215.101990 
z"/>
<path fill="#83CB70" opacity="1.000000" stroke="none" 
	d="
M148.913361,205.354370 
	C149.132782,205.302643 149.206787,205.696609 149.263885,205.889862 
	C149.320984,206.083099 148.898849,206.207977 148.679840,206.205292 
	C148.315369,205.871674 148.393082,205.606171 148.913361,205.354370 
z"/>
<path fill="#83CB70" opacity="1.000000" stroke="none" 
	d="
M149.786896,178.744446 
	C149.901871,179.304626 149.781906,179.543167 149.425400,179.851929 
	C149.101578,179.879395 148.928116,179.833328 148.806671,179.727539 
	C142.319031,174.077026 135.651367,173.455185 128.398636,179.050568 
	C127.448204,178.370697 126.856575,177.637375 125.886536,176.796997 
	C128.969070,174.393539 132.430038,172.097092 136.199493,169.662506 
	C137.279068,170.642181 137.805267,172.173325 138.866211,172.801926 
	C142.344116,174.862610 146.016373,176.595261 149.786896,178.744446 
z"/>
<path fill="#65BF4C" opacity="1.000000" stroke="none" 
	d="
M163.983170,173.672546 
	C163.750336,174.153122 163.458481,174.295654 162.525391,174.332458 
	C161.671555,174.688766 161.407700,175.045944 161.143860,175.403107 
	C160.744949,175.686890 160.346039,175.970688 159.697510,176.231949 
	C157.860443,173.129318 157.860443,173.129318 163.559204,172.981323 
	C163.972916,172.972748 163.975372,173.439362 163.983170,173.672546 
z"/>
<path fill="#83CB70" opacity="1.000000" stroke="none" 
	d="
M136.745850,161.896515 
	C136.546051,161.886368 136.427536,161.462234 136.455475,160.853745 
	C136.677002,160.940430 136.752075,161.211487 136.745850,161.896515 
z"/>
<path fill="#73C35E" opacity="1.000000" stroke="none" 
	d="
M157.171158,177.311966 
	C157.204056,177.610672 156.922607,177.873016 156.345490,178.151917 
	C156.318832,177.870865 156.587830,177.573242 157.171158,177.311966 
z"/>
<path fill="#73C35E" opacity="1.000000" stroke="none" 
	d="
M161.449219,175.290436 
	C161.407700,175.045944 161.671555,174.688766 162.282516,174.284775 
	C162.337952,174.551224 162.046265,174.864487 161.449219,175.290436 
z"/>
</svg>